%TF.GenerationSoftware,KiCad,Pcbnew,8.0.6*%
%TF.CreationDate,2024-11-20T13:36:43-05:00*%
%TF.ProjectId,wheel_counter,77686565-6c5f-4636-9f75-6e7465722e6b,rev?*%
%TF.SameCoordinates,Original*%
%TF.FileFunction,Legend,Top*%
%TF.FilePolarity,Positive*%
%FSLAX46Y46*%
G04 Gerber Fmt 4.6, Leading zero omitted, Abs format (unit mm)*
G04 Created by KiCad (PCBNEW 8.0.6) date 2024-11-20 13:36:43*
%MOMM*%
%LPD*%
G01*
G04 APERTURE LIST*
G04 Aperture macros list*
%AMRoundRect*
0 Rectangle with rounded corners*
0 $1 Rounding radius*
0 $2 $3 $4 $5 $6 $7 $8 $9 X,Y pos of 4 corners*
0 Add a 4 corners polygon primitive as box body*
4,1,4,$2,$3,$4,$5,$6,$7,$8,$9,$2,$3,0*
0 Add four circle primitives for the rounded corners*
1,1,$1+$1,$2,$3*
1,1,$1+$1,$4,$5*
1,1,$1+$1,$6,$7*
1,1,$1+$1,$8,$9*
0 Add four rect primitives between the rounded corners*
20,1,$1+$1,$2,$3,$4,$5,0*
20,1,$1+$1,$4,$5,$6,$7,0*
20,1,$1+$1,$6,$7,$8,$9,0*
20,1,$1+$1,$8,$9,$2,$3,0*%
G04 Aperture macros list end*
%ADD10C,0.250000*%
%ADD11C,0.497214*%
%ADD12C,0.100000*%
%ADD13C,0.500000*%
%ADD14C,0.600000*%
%ADD15C,0.800000*%
%ADD16C,0.400000*%
%ADD17C,0.150000*%
%ADD18C,0.254000*%
%ADD19C,0.152400*%
%ADD20C,0.200000*%
%ADD21C,0.120000*%
%ADD22C,0.127000*%
%ADD23C,0.609600*%
%ADD24R,1.400000X1.400000*%
%ADD25C,1.400000*%
%ADD26C,1.320800*%
%ADD27C,1.498600*%
%ADD28R,0.875000X0.450000*%
%ADD29R,0.355600X0.304800*%
%ADD30R,1.447800X2.590800*%
%ADD31R,1.000000X0.800000*%
%ADD32R,1.000000X0.600000*%
%ADD33R,1.500000X0.600000*%
%ADD34R,0.600000X1.500000*%
%ADD35C,1.703200*%
%ADD36RoundRect,0.101600X-0.750000X0.650000X-0.750000X-0.650000X0.750000X-0.650000X0.750000X0.650000X0*%
%ADD37RoundRect,0.101600X-0.106066X0.883883X-0.883883X0.106066X0.106066X-0.883883X0.883883X-0.106066X0*%
%ADD38RoundRect,0.250000X-0.325000X-0.450000X0.325000X-0.450000X0.325000X0.450000X-0.325000X0.450000X0*%
%ADD39R,1.550000X0.650000*%
%ADD40RoundRect,0.101600X0.883883X0.106066X0.106066X0.883883X-0.883883X-0.106066X-0.106066X-0.883883X0*%
%ADD41C,3.200000*%
%ADD42RoundRect,0.102000X1.200000X1.050000X-1.200000X1.050000X-1.200000X-1.050000X1.200000X-1.050000X0*%
%ADD43R,1.300000X2.340000*%
%ADD44RoundRect,0.101600X-0.883883X-0.106066X-0.106066X-0.883883X0.883883X0.106066X0.106066X0.883883X0*%
%ADD45RoundRect,0.101600X0.550000X0.700000X-0.550000X0.700000X-0.550000X-0.700000X0.550000X-0.700000X0*%
%ADD46RoundRect,0.101600X0.700000X-0.550000X0.700000X0.550000X-0.700000X0.550000X-0.700000X-0.550000X0*%
%ADD47RoundRect,0.101600X-0.700000X0.550000X-0.700000X-0.550000X0.700000X-0.550000X0.700000X0.550000X0*%
%ADD48RoundRect,0.101600X-0.575000X-0.700000X0.575000X-0.700000X0.575000X0.700000X-0.575000X0.700000X0*%
%ADD49RoundRect,0.102000X-0.660400X-0.279400X0.660400X-0.279400X0.660400X0.279400X-0.660400X0.279400X0*%
%ADD50C,1.778000*%
%ADD51RoundRect,0.101600X-0.550000X-0.700000X0.550000X-0.700000X0.550000X0.700000X-0.550000X0.700000X0*%
%ADD52RoundRect,0.101600X-0.650000X-0.750000X0.650000X-0.750000X0.650000X0.750000X-0.650000X0.750000X0*%
%ADD53RoundRect,0.101600X0.750000X-0.650000X0.750000X0.650000X-0.750000X0.650000X-0.750000X-0.650000X0*%
%ADD54RoundRect,0.102000X0.660400X0.279400X-0.660400X0.279400X-0.660400X-0.279400X0.660400X-0.279400X0*%
%ADD55RoundRect,0.102000X0.700000X-0.750000X0.700000X0.750000X-0.700000X0.750000X-0.700000X-0.750000X0*%
%ADD56RoundRect,0.050800X1.000000X0.400000X-1.000000X0.400000X-1.000000X-0.400000X1.000000X-0.400000X0*%
%ADD57RoundRect,0.050800X-1.000000X-0.400000X1.000000X-0.400000X1.000000X0.400000X-1.000000X0.400000X0*%
%ADD58RoundRect,0.101600X0.106066X-0.883883X0.883883X-0.106066X-0.106066X0.883883X-0.883883X0.106066X0*%
%ADD59RoundRect,0.250000X-0.450000X0.325000X-0.450000X-0.325000X0.450000X-0.325000X0.450000X0.325000X0*%
%ADD60RoundRect,0.101600X0.650000X0.750000X-0.650000X0.750000X-0.650000X-0.750000X0.650000X-0.750000X0*%
%ADD61C,0.990600*%
%ADD62RoundRect,0.495300X0.000010X-0.000010X0.000010X0.000010X-0.000010X0.000010X-0.000010X-0.000010X0*%
%ADD63RoundRect,0.495300X-0.000010X0.000010X-0.000010X-0.000010X0.000010X-0.000010X0.000010X0.000010X0*%
%ADD64R,1.700000X1.700000*%
%ADD65O,1.700000X1.700000*%
G04 APERTURE END LIST*
D10*
X99359711Y-93503428D02*
X99693044Y-95003428D01*
X99693044Y-95003428D02*
X100026377Y-93503428D01*
X100931139Y-94860571D02*
X100883520Y-94932000D01*
X100883520Y-94932000D02*
X100740663Y-95003428D01*
X100740663Y-95003428D02*
X100645425Y-95003428D01*
X100645425Y-95003428D02*
X100502568Y-94932000D01*
X100502568Y-94932000D02*
X100407330Y-94789142D01*
X100407330Y-94789142D02*
X100359711Y-94646285D01*
X100359711Y-94646285D02*
X100312092Y-94360571D01*
X100312092Y-94360571D02*
X100312092Y-94146285D01*
X100312092Y-94146285D02*
X100359711Y-93860571D01*
X100359711Y-93860571D02*
X100407330Y-93717714D01*
X100407330Y-93717714D02*
X100502568Y-93574857D01*
X100502568Y-93574857D02*
X100645425Y-93503428D01*
X100645425Y-93503428D02*
X100740663Y-93503428D01*
X100740663Y-93503428D02*
X100883520Y-93574857D01*
X100883520Y-93574857D02*
X100931139Y-93646285D01*
X101931139Y-94860571D02*
X101883520Y-94932000D01*
X101883520Y-94932000D02*
X101740663Y-95003428D01*
X101740663Y-95003428D02*
X101645425Y-95003428D01*
X101645425Y-95003428D02*
X101502568Y-94932000D01*
X101502568Y-94932000D02*
X101407330Y-94789142D01*
X101407330Y-94789142D02*
X101359711Y-94646285D01*
X101359711Y-94646285D02*
X101312092Y-94360571D01*
X101312092Y-94360571D02*
X101312092Y-94146285D01*
X101312092Y-94146285D02*
X101359711Y-93860571D01*
X101359711Y-93860571D02*
X101407330Y-93717714D01*
X101407330Y-93717714D02*
X101502568Y-93574857D01*
X101502568Y-93574857D02*
X101645425Y-93503428D01*
X101645425Y-93503428D02*
X101740663Y-93503428D01*
X101740663Y-93503428D02*
X101883520Y-93574857D01*
X101883520Y-93574857D02*
X101931139Y-93646285D01*
X86059711Y-55503428D02*
X86393044Y-57003428D01*
X86393044Y-57003428D02*
X86726377Y-55503428D01*
X86821616Y-57146285D02*
X87583520Y-57146285D01*
X88393044Y-56860571D02*
X88345425Y-56932000D01*
X88345425Y-56932000D02*
X88202568Y-57003428D01*
X88202568Y-57003428D02*
X88107330Y-57003428D01*
X88107330Y-57003428D02*
X87964473Y-56932000D01*
X87964473Y-56932000D02*
X87869235Y-56789142D01*
X87869235Y-56789142D02*
X87821616Y-56646285D01*
X87821616Y-56646285D02*
X87773997Y-56360571D01*
X87773997Y-56360571D02*
X87773997Y-56146285D01*
X87773997Y-56146285D02*
X87821616Y-55860571D01*
X87821616Y-55860571D02*
X87869235Y-55717714D01*
X87869235Y-55717714D02*
X87964473Y-55574857D01*
X87964473Y-55574857D02*
X88107330Y-55503428D01*
X88107330Y-55503428D02*
X88202568Y-55503428D01*
X88202568Y-55503428D02*
X88345425Y-55574857D01*
X88345425Y-55574857D02*
X88393044Y-55646285D01*
X89012092Y-55503428D02*
X89202568Y-55503428D01*
X89202568Y-55503428D02*
X89297806Y-55574857D01*
X89297806Y-55574857D02*
X89393044Y-55717714D01*
X89393044Y-55717714D02*
X89440663Y-56003428D01*
X89440663Y-56003428D02*
X89440663Y-56503428D01*
X89440663Y-56503428D02*
X89393044Y-56789142D01*
X89393044Y-56789142D02*
X89297806Y-56932000D01*
X89297806Y-56932000D02*
X89202568Y-57003428D01*
X89202568Y-57003428D02*
X89012092Y-57003428D01*
X89012092Y-57003428D02*
X88916854Y-56932000D01*
X88916854Y-56932000D02*
X88821616Y-56789142D01*
X88821616Y-56789142D02*
X88773997Y-56503428D01*
X88773997Y-56503428D02*
X88773997Y-56003428D01*
X88773997Y-56003428D02*
X88821616Y-55717714D01*
X88821616Y-55717714D02*
X88916854Y-55574857D01*
X88916854Y-55574857D02*
X89012092Y-55503428D01*
X89869235Y-57003428D02*
X89869235Y-55503428D01*
X90345425Y-57003428D02*
X90345425Y-55503428D01*
X90345425Y-55503428D02*
X90916853Y-57003428D01*
X90916853Y-57003428D02*
X90916853Y-55503428D01*
X91154949Y-57146285D02*
X91916853Y-57146285D01*
X92726377Y-56860571D02*
X92678758Y-56932000D01*
X92678758Y-56932000D02*
X92535901Y-57003428D01*
X92535901Y-57003428D02*
X92440663Y-57003428D01*
X92440663Y-57003428D02*
X92297806Y-56932000D01*
X92297806Y-56932000D02*
X92202568Y-56789142D01*
X92202568Y-56789142D02*
X92154949Y-56646285D01*
X92154949Y-56646285D02*
X92107330Y-56360571D01*
X92107330Y-56360571D02*
X92107330Y-56146285D01*
X92107330Y-56146285D02*
X92154949Y-55860571D01*
X92154949Y-55860571D02*
X92202568Y-55717714D01*
X92202568Y-55717714D02*
X92297806Y-55574857D01*
X92297806Y-55574857D02*
X92440663Y-55503428D01*
X92440663Y-55503428D02*
X92535901Y-55503428D01*
X92535901Y-55503428D02*
X92678758Y-55574857D01*
X92678758Y-55574857D02*
X92726377Y-55646285D01*
X93154949Y-56217714D02*
X93488282Y-56217714D01*
X93631139Y-57003428D02*
X93154949Y-57003428D01*
X93154949Y-57003428D02*
X93154949Y-55503428D01*
X93154949Y-55503428D02*
X93631139Y-55503428D01*
X94535901Y-57003428D02*
X94059711Y-57003428D01*
X94059711Y-57003428D02*
X94059711Y-55503428D01*
X95345425Y-57003428D02*
X94869235Y-57003428D01*
X94869235Y-57003428D02*
X94869235Y-55503428D01*
X110126377Y-63774857D02*
X110031139Y-63703428D01*
X110031139Y-63703428D02*
X109888282Y-63703428D01*
X109888282Y-63703428D02*
X109745425Y-63774857D01*
X109745425Y-63774857D02*
X109650187Y-63917714D01*
X109650187Y-63917714D02*
X109602568Y-64060571D01*
X109602568Y-64060571D02*
X109554949Y-64346285D01*
X109554949Y-64346285D02*
X109554949Y-64560571D01*
X109554949Y-64560571D02*
X109602568Y-64846285D01*
X109602568Y-64846285D02*
X109650187Y-64989142D01*
X109650187Y-64989142D02*
X109745425Y-65132000D01*
X109745425Y-65132000D02*
X109888282Y-65203428D01*
X109888282Y-65203428D02*
X109983520Y-65203428D01*
X109983520Y-65203428D02*
X110126377Y-65132000D01*
X110126377Y-65132000D02*
X110173996Y-65060571D01*
X110173996Y-65060571D02*
X110173996Y-64560571D01*
X110173996Y-64560571D02*
X109983520Y-64560571D01*
X110602568Y-65203428D02*
X110602568Y-63703428D01*
X110602568Y-63703428D02*
X111173996Y-65203428D01*
X111173996Y-65203428D02*
X111173996Y-63703428D01*
X111650187Y-65203428D02*
X111650187Y-63703428D01*
X111650187Y-63703428D02*
X111888282Y-63703428D01*
X111888282Y-63703428D02*
X112031139Y-63774857D01*
X112031139Y-63774857D02*
X112126377Y-63917714D01*
X112126377Y-63917714D02*
X112173996Y-64060571D01*
X112173996Y-64060571D02*
X112221615Y-64346285D01*
X112221615Y-64346285D02*
X112221615Y-64560571D01*
X112221615Y-64560571D02*
X112173996Y-64846285D01*
X112173996Y-64846285D02*
X112126377Y-64989142D01*
X112126377Y-64989142D02*
X112031139Y-65132000D01*
X112031139Y-65132000D02*
X111888282Y-65203428D01*
X111888282Y-65203428D02*
X111650187Y-65203428D01*
X77302568Y-125103428D02*
X77302568Y-123603428D01*
X77302568Y-123603428D02*
X77635901Y-124674857D01*
X77635901Y-124674857D02*
X77969234Y-123603428D01*
X77969234Y-123603428D02*
X77969234Y-125103428D01*
X78445425Y-125103428D02*
X78445425Y-123603428D01*
X78873996Y-125032000D02*
X79016853Y-125103428D01*
X79016853Y-125103428D02*
X79254948Y-125103428D01*
X79254948Y-125103428D02*
X79350186Y-125032000D01*
X79350186Y-125032000D02*
X79397805Y-124960571D01*
X79397805Y-124960571D02*
X79445424Y-124817714D01*
X79445424Y-124817714D02*
X79445424Y-124674857D01*
X79445424Y-124674857D02*
X79397805Y-124532000D01*
X79397805Y-124532000D02*
X79350186Y-124460571D01*
X79350186Y-124460571D02*
X79254948Y-124389142D01*
X79254948Y-124389142D02*
X79064472Y-124317714D01*
X79064472Y-124317714D02*
X78969234Y-124246285D01*
X78969234Y-124246285D02*
X78921615Y-124174857D01*
X78921615Y-124174857D02*
X78873996Y-124032000D01*
X78873996Y-124032000D02*
X78873996Y-123889142D01*
X78873996Y-123889142D02*
X78921615Y-123746285D01*
X78921615Y-123746285D02*
X78969234Y-123674857D01*
X78969234Y-123674857D02*
X79064472Y-123603428D01*
X79064472Y-123603428D02*
X79302567Y-123603428D01*
X79302567Y-123603428D02*
X79445424Y-123674857D01*
X80064472Y-123603428D02*
X80254948Y-123603428D01*
X80254948Y-123603428D02*
X80350186Y-123674857D01*
X80350186Y-123674857D02*
X80445424Y-123817714D01*
X80445424Y-123817714D02*
X80493043Y-124103428D01*
X80493043Y-124103428D02*
X80493043Y-124603428D01*
X80493043Y-124603428D02*
X80445424Y-124889142D01*
X80445424Y-124889142D02*
X80350186Y-125032000D01*
X80350186Y-125032000D02*
X80254948Y-125103428D01*
X80254948Y-125103428D02*
X80064472Y-125103428D01*
X80064472Y-125103428D02*
X79969234Y-125032000D01*
X79969234Y-125032000D02*
X79873996Y-124889142D01*
X79873996Y-124889142D02*
X79826377Y-124603428D01*
X79826377Y-124603428D02*
X79826377Y-124103428D01*
X79826377Y-124103428D02*
X79873996Y-123817714D01*
X79873996Y-123817714D02*
X79969234Y-123674857D01*
X79969234Y-123674857D02*
X80064472Y-123603428D01*
X71002568Y-144103428D02*
X71002568Y-142603428D01*
X71002568Y-142603428D02*
X71335901Y-143674857D01*
X71335901Y-143674857D02*
X71669234Y-142603428D01*
X71669234Y-142603428D02*
X71669234Y-144103428D01*
X72335901Y-142603428D02*
X72526377Y-142603428D01*
X72526377Y-142603428D02*
X72621615Y-142674857D01*
X72621615Y-142674857D02*
X72716853Y-142817714D01*
X72716853Y-142817714D02*
X72764472Y-143103428D01*
X72764472Y-143103428D02*
X72764472Y-143603428D01*
X72764472Y-143603428D02*
X72716853Y-143889142D01*
X72716853Y-143889142D02*
X72621615Y-144032000D01*
X72621615Y-144032000D02*
X72526377Y-144103428D01*
X72526377Y-144103428D02*
X72335901Y-144103428D01*
X72335901Y-144103428D02*
X72240663Y-144032000D01*
X72240663Y-144032000D02*
X72145425Y-143889142D01*
X72145425Y-143889142D02*
X72097806Y-143603428D01*
X72097806Y-143603428D02*
X72097806Y-143103428D01*
X72097806Y-143103428D02*
X72145425Y-142817714D01*
X72145425Y-142817714D02*
X72240663Y-142674857D01*
X72240663Y-142674857D02*
X72335901Y-142603428D01*
X73145425Y-144032000D02*
X73288282Y-144103428D01*
X73288282Y-144103428D02*
X73526377Y-144103428D01*
X73526377Y-144103428D02*
X73621615Y-144032000D01*
X73621615Y-144032000D02*
X73669234Y-143960571D01*
X73669234Y-143960571D02*
X73716853Y-143817714D01*
X73716853Y-143817714D02*
X73716853Y-143674857D01*
X73716853Y-143674857D02*
X73669234Y-143532000D01*
X73669234Y-143532000D02*
X73621615Y-143460571D01*
X73621615Y-143460571D02*
X73526377Y-143389142D01*
X73526377Y-143389142D02*
X73335901Y-143317714D01*
X73335901Y-143317714D02*
X73240663Y-143246285D01*
X73240663Y-143246285D02*
X73193044Y-143174857D01*
X73193044Y-143174857D02*
X73145425Y-143032000D01*
X73145425Y-143032000D02*
X73145425Y-142889142D01*
X73145425Y-142889142D02*
X73193044Y-142746285D01*
X73193044Y-142746285D02*
X73240663Y-142674857D01*
X73240663Y-142674857D02*
X73335901Y-142603428D01*
X73335901Y-142603428D02*
X73573996Y-142603428D01*
X73573996Y-142603428D02*
X73716853Y-142674857D01*
X74145425Y-144103428D02*
X74145425Y-142603428D01*
X71654949Y-141832000D02*
X71797806Y-141903428D01*
X71797806Y-141903428D02*
X72035901Y-141903428D01*
X72035901Y-141903428D02*
X72131139Y-141832000D01*
X72131139Y-141832000D02*
X72178758Y-141760571D01*
X72178758Y-141760571D02*
X72226377Y-141617714D01*
X72226377Y-141617714D02*
X72226377Y-141474857D01*
X72226377Y-141474857D02*
X72178758Y-141332000D01*
X72178758Y-141332000D02*
X72131139Y-141260571D01*
X72131139Y-141260571D02*
X72035901Y-141189142D01*
X72035901Y-141189142D02*
X71845425Y-141117714D01*
X71845425Y-141117714D02*
X71750187Y-141046285D01*
X71750187Y-141046285D02*
X71702568Y-140974857D01*
X71702568Y-140974857D02*
X71654949Y-140832000D01*
X71654949Y-140832000D02*
X71654949Y-140689142D01*
X71654949Y-140689142D02*
X71702568Y-140546285D01*
X71702568Y-140546285D02*
X71750187Y-140474857D01*
X71750187Y-140474857D02*
X71845425Y-140403428D01*
X71845425Y-140403428D02*
X72083520Y-140403428D01*
X72083520Y-140403428D02*
X72226377Y-140474857D01*
X73226377Y-141760571D02*
X73178758Y-141832000D01*
X73178758Y-141832000D02*
X73035901Y-141903428D01*
X73035901Y-141903428D02*
X72940663Y-141903428D01*
X72940663Y-141903428D02*
X72797806Y-141832000D01*
X72797806Y-141832000D02*
X72702568Y-141689142D01*
X72702568Y-141689142D02*
X72654949Y-141546285D01*
X72654949Y-141546285D02*
X72607330Y-141260571D01*
X72607330Y-141260571D02*
X72607330Y-141046285D01*
X72607330Y-141046285D02*
X72654949Y-140760571D01*
X72654949Y-140760571D02*
X72702568Y-140617714D01*
X72702568Y-140617714D02*
X72797806Y-140474857D01*
X72797806Y-140474857D02*
X72940663Y-140403428D01*
X72940663Y-140403428D02*
X73035901Y-140403428D01*
X73035901Y-140403428D02*
X73178758Y-140474857D01*
X73178758Y-140474857D02*
X73226377Y-140546285D01*
X73654949Y-141903428D02*
X73654949Y-140403428D01*
X74226377Y-141903428D02*
X73797806Y-141046285D01*
X74226377Y-140403428D02*
X73654949Y-141260571D01*
X89502568Y-81403428D02*
X89502568Y-79903428D01*
X89502568Y-79903428D02*
X89835901Y-80974857D01*
X89835901Y-80974857D02*
X90169234Y-79903428D01*
X90169234Y-79903428D02*
X90169234Y-81403428D01*
X91216853Y-81260571D02*
X91169234Y-81332000D01*
X91169234Y-81332000D02*
X91026377Y-81403428D01*
X91026377Y-81403428D02*
X90931139Y-81403428D01*
X90931139Y-81403428D02*
X90788282Y-81332000D01*
X90788282Y-81332000D02*
X90693044Y-81189142D01*
X90693044Y-81189142D02*
X90645425Y-81046285D01*
X90645425Y-81046285D02*
X90597806Y-80760571D01*
X90597806Y-80760571D02*
X90597806Y-80546285D01*
X90597806Y-80546285D02*
X90645425Y-80260571D01*
X90645425Y-80260571D02*
X90693044Y-80117714D01*
X90693044Y-80117714D02*
X90788282Y-79974857D01*
X90788282Y-79974857D02*
X90931139Y-79903428D01*
X90931139Y-79903428D02*
X91026377Y-79903428D01*
X91026377Y-79903428D02*
X91169234Y-79974857D01*
X91169234Y-79974857D02*
X91216853Y-80046285D01*
X91645425Y-79903428D02*
X91645425Y-81117714D01*
X91645425Y-81117714D02*
X91693044Y-81260571D01*
X91693044Y-81260571D02*
X91740663Y-81332000D01*
X91740663Y-81332000D02*
X91835901Y-81403428D01*
X91835901Y-81403428D02*
X92026377Y-81403428D01*
X92026377Y-81403428D02*
X92121615Y-81332000D01*
X92121615Y-81332000D02*
X92169234Y-81260571D01*
X92169234Y-81260571D02*
X92216853Y-81117714D01*
X92216853Y-81117714D02*
X92216853Y-79903428D01*
X92454949Y-81546285D02*
X93216853Y-81546285D01*
X94026377Y-81403428D02*
X93693044Y-80689142D01*
X93454949Y-81403428D02*
X93454949Y-79903428D01*
X93454949Y-79903428D02*
X93835901Y-79903428D01*
X93835901Y-79903428D02*
X93931139Y-79974857D01*
X93931139Y-79974857D02*
X93978758Y-80046285D01*
X93978758Y-80046285D02*
X94026377Y-80189142D01*
X94026377Y-80189142D02*
X94026377Y-80403428D01*
X94026377Y-80403428D02*
X93978758Y-80546285D01*
X93978758Y-80546285D02*
X93931139Y-80617714D01*
X93931139Y-80617714D02*
X93835901Y-80689142D01*
X93835901Y-80689142D02*
X93454949Y-80689142D01*
X94407330Y-81332000D02*
X94550187Y-81403428D01*
X94550187Y-81403428D02*
X94788282Y-81403428D01*
X94788282Y-81403428D02*
X94883520Y-81332000D01*
X94883520Y-81332000D02*
X94931139Y-81260571D01*
X94931139Y-81260571D02*
X94978758Y-81117714D01*
X94978758Y-81117714D02*
X94978758Y-80974857D01*
X94978758Y-80974857D02*
X94931139Y-80832000D01*
X94931139Y-80832000D02*
X94883520Y-80760571D01*
X94883520Y-80760571D02*
X94788282Y-80689142D01*
X94788282Y-80689142D02*
X94597806Y-80617714D01*
X94597806Y-80617714D02*
X94502568Y-80546285D01*
X94502568Y-80546285D02*
X94454949Y-80474857D01*
X94454949Y-80474857D02*
X94407330Y-80332000D01*
X94407330Y-80332000D02*
X94407330Y-80189142D01*
X94407330Y-80189142D02*
X94454949Y-80046285D01*
X94454949Y-80046285D02*
X94502568Y-79974857D01*
X94502568Y-79974857D02*
X94597806Y-79903428D01*
X94597806Y-79903428D02*
X94835901Y-79903428D01*
X94835901Y-79903428D02*
X94978758Y-79974857D01*
X95264473Y-79903428D02*
X95835901Y-79903428D01*
X95550187Y-81403428D02*
X95550187Y-79903428D01*
D11*
X85848607Y-132000000D02*
G75*
G02*
X85351393Y-132000000I-248607J0D01*
G01*
X85351393Y-132000000D02*
G75*
G02*
X85848607Y-132000000I248607J0D01*
G01*
D12*
X44500000Y-131400000D02*
X73000000Y-131400000D01*
X73000000Y-149700000D01*
X44500000Y-149700000D01*
X44500000Y-131400000D01*
X59600000Y-98400000D02*
X60000000Y-98800000D01*
X62000000Y-95000000D02*
X62800000Y-95800000D01*
X57200000Y-115000000D02*
X56800000Y-114200000D01*
X55000000Y-101400000D02*
X55800000Y-101400000D01*
X36900000Y-92600000D02*
X43800000Y-92600000D01*
X43800000Y-116100000D01*
X36900000Y-116100000D01*
X36900000Y-92600000D01*
X121200000Y-109000000D02*
X134900000Y-109000000D01*
X134900000Y-136300000D01*
X121200000Y-136300000D01*
X121200000Y-109000000D01*
X55000000Y-109400000D02*
X56000000Y-109200000D01*
X44600000Y-91000000D02*
X45800000Y-88200000D01*
X58200000Y-99800000D02*
X62000000Y-102800000D01*
X102000000Y-117000000D02*
X120600000Y-117000000D01*
X120600000Y-134200000D01*
X102000000Y-134200000D01*
X102000000Y-117000000D01*
X82400000Y-108700000D02*
X100100000Y-108700000D01*
X100100000Y-121900000D01*
X82400000Y-121900000D01*
X82400000Y-108700000D01*
D11*
X39248607Y-117800000D02*
G75*
G02*
X38751393Y-117800000I-248607J0D01*
G01*
X38751393Y-117800000D02*
G75*
G02*
X39248607Y-117800000I248607J0D01*
G01*
D12*
X56750000Y-96500000D02*
X61000000Y-97200000D01*
X79000000Y-128200000D02*
X99400000Y-128200000D01*
X99400000Y-141200000D01*
X79000000Y-141200000D01*
X79000000Y-128200000D01*
X64400000Y-110400000D02*
X63400000Y-109800000D01*
X37000000Y-117600000D02*
X49200000Y-117600000D01*
X49200000Y-133600000D01*
X37000000Y-133600000D01*
X37000000Y-117600000D01*
X46200000Y-83200000D02*
X47600000Y-83600000D01*
X75800000Y-109000000D02*
X76000000Y-104600000D01*
X55400000Y-91000000D02*
X57800000Y-90800000D01*
X50800000Y-112800000D02*
X50600000Y-113200000D01*
X59600000Y-98400000D02*
X57500000Y-97750000D01*
X86000000Y-116800000D02*
X85600000Y-115400000D01*
X89000000Y-115600000D02*
X88600000Y-114400000D01*
X76000000Y-104600000D02*
X77000000Y-104600000D01*
X54000000Y-122400000D02*
X52200000Y-124800000D01*
X40600000Y-133400000D02*
X41200000Y-133000000D01*
X42900000Y-80900000D02*
X66500000Y-80900000D01*
X66500000Y-92100000D01*
X42900000Y-92100000D01*
X42900000Y-80900000D01*
D10*
X70159711Y-83103428D02*
X70731139Y-83103428D01*
X70445425Y-84603428D02*
X70445425Y-83103428D01*
X71635901Y-84603428D02*
X71302568Y-83889142D01*
X71064473Y-84603428D02*
X71064473Y-83103428D01*
X71064473Y-83103428D02*
X71445425Y-83103428D01*
X71445425Y-83103428D02*
X71540663Y-83174857D01*
X71540663Y-83174857D02*
X71588282Y-83246285D01*
X71588282Y-83246285D02*
X71635901Y-83389142D01*
X71635901Y-83389142D02*
X71635901Y-83603428D01*
X71635901Y-83603428D02*
X71588282Y-83746285D01*
X71588282Y-83746285D02*
X71540663Y-83817714D01*
X71540663Y-83817714D02*
X71445425Y-83889142D01*
X71445425Y-83889142D02*
X71064473Y-83889142D01*
X72064473Y-84603428D02*
X72064473Y-83103428D01*
X73064472Y-83174857D02*
X72969234Y-83103428D01*
X72969234Y-83103428D02*
X72826377Y-83103428D01*
X72826377Y-83103428D02*
X72683520Y-83174857D01*
X72683520Y-83174857D02*
X72588282Y-83317714D01*
X72588282Y-83317714D02*
X72540663Y-83460571D01*
X72540663Y-83460571D02*
X72493044Y-83746285D01*
X72493044Y-83746285D02*
X72493044Y-83960571D01*
X72493044Y-83960571D02*
X72540663Y-84246285D01*
X72540663Y-84246285D02*
X72588282Y-84389142D01*
X72588282Y-84389142D02*
X72683520Y-84532000D01*
X72683520Y-84532000D02*
X72826377Y-84603428D01*
X72826377Y-84603428D02*
X72921615Y-84603428D01*
X72921615Y-84603428D02*
X73064472Y-84532000D01*
X73064472Y-84532000D02*
X73112091Y-84460571D01*
X73112091Y-84460571D02*
X73112091Y-83960571D01*
X73112091Y-83960571D02*
X72921615Y-83960571D01*
X100926377Y-126874857D02*
X100831139Y-126803428D01*
X100831139Y-126803428D02*
X100688282Y-126803428D01*
X100688282Y-126803428D02*
X100545425Y-126874857D01*
X100545425Y-126874857D02*
X100450187Y-127017714D01*
X100450187Y-127017714D02*
X100402568Y-127160571D01*
X100402568Y-127160571D02*
X100354949Y-127446285D01*
X100354949Y-127446285D02*
X100354949Y-127660571D01*
X100354949Y-127660571D02*
X100402568Y-127946285D01*
X100402568Y-127946285D02*
X100450187Y-128089142D01*
X100450187Y-128089142D02*
X100545425Y-128232000D01*
X100545425Y-128232000D02*
X100688282Y-128303428D01*
X100688282Y-128303428D02*
X100783520Y-128303428D01*
X100783520Y-128303428D02*
X100926377Y-128232000D01*
X100926377Y-128232000D02*
X100973996Y-128160571D01*
X100973996Y-128160571D02*
X100973996Y-127660571D01*
X100973996Y-127660571D02*
X100783520Y-127660571D01*
X101402568Y-128303428D02*
X101402568Y-126803428D01*
X101402568Y-126803428D02*
X101783520Y-126803428D01*
X101783520Y-126803428D02*
X101878758Y-126874857D01*
X101878758Y-126874857D02*
X101926377Y-126946285D01*
X101926377Y-126946285D02*
X101973996Y-127089142D01*
X101973996Y-127089142D02*
X101973996Y-127303428D01*
X101973996Y-127303428D02*
X101926377Y-127446285D01*
X101926377Y-127446285D02*
X101878758Y-127517714D01*
X101878758Y-127517714D02*
X101783520Y-127589142D01*
X101783520Y-127589142D02*
X101402568Y-127589142D01*
X102593044Y-126803428D02*
X102783520Y-126803428D01*
X102783520Y-126803428D02*
X102878758Y-126874857D01*
X102878758Y-126874857D02*
X102973996Y-127017714D01*
X102973996Y-127017714D02*
X103021615Y-127303428D01*
X103021615Y-127303428D02*
X103021615Y-127803428D01*
X103021615Y-127803428D02*
X102973996Y-128089142D01*
X102973996Y-128089142D02*
X102878758Y-128232000D01*
X102878758Y-128232000D02*
X102783520Y-128303428D01*
X102783520Y-128303428D02*
X102593044Y-128303428D01*
X102593044Y-128303428D02*
X102497806Y-128232000D01*
X102497806Y-128232000D02*
X102402568Y-128089142D01*
X102402568Y-128089142D02*
X102354949Y-127803428D01*
X102354949Y-127803428D02*
X102354949Y-127303428D01*
X102354949Y-127303428D02*
X102402568Y-127017714D01*
X102402568Y-127017714D02*
X102497806Y-126874857D01*
X102497806Y-126874857D02*
X102593044Y-126803428D01*
D13*
X126477025Y-125342857D02*
X123477025Y-125342857D01*
X123477025Y-125342857D02*
X126477025Y-123628571D01*
X126477025Y-123628571D02*
X123477025Y-123628571D01*
X124905596Y-121200000D02*
X124905596Y-122200000D01*
X126477025Y-122200000D02*
X123477025Y-122200000D01*
X123477025Y-122200000D02*
X123477025Y-120771428D01*
X126191310Y-117914285D02*
X126334168Y-118057142D01*
X126334168Y-118057142D02*
X126477025Y-118485714D01*
X126477025Y-118485714D02*
X126477025Y-118771428D01*
X126477025Y-118771428D02*
X126334168Y-119199999D01*
X126334168Y-119199999D02*
X126048453Y-119485714D01*
X126048453Y-119485714D02*
X125762739Y-119628571D01*
X125762739Y-119628571D02*
X125191310Y-119771428D01*
X125191310Y-119771428D02*
X124762739Y-119771428D01*
X124762739Y-119771428D02*
X124191310Y-119628571D01*
X124191310Y-119628571D02*
X123905596Y-119485714D01*
X123905596Y-119485714D02*
X123619882Y-119199999D01*
X123619882Y-119199999D02*
X123477025Y-118771428D01*
X123477025Y-118771428D02*
X123477025Y-118485714D01*
X123477025Y-118485714D02*
X123619882Y-118057142D01*
X123619882Y-118057142D02*
X123762739Y-117914285D01*
X130449714Y-129985715D02*
X130449714Y-128557144D01*
X131306857Y-130271429D02*
X128306857Y-129271429D01*
X128306857Y-129271429D02*
X131306857Y-128271429D01*
X129306857Y-127271429D02*
X131306857Y-127271429D01*
X129592571Y-127271429D02*
X129449714Y-127128572D01*
X129449714Y-127128572D02*
X129306857Y-126842857D01*
X129306857Y-126842857D02*
X129306857Y-126414286D01*
X129306857Y-126414286D02*
X129449714Y-126128572D01*
X129449714Y-126128572D02*
X129735428Y-125985715D01*
X129735428Y-125985715D02*
X131306857Y-125985715D01*
X129306857Y-124985714D02*
X129306857Y-123842857D01*
X128306857Y-124557143D02*
X130878285Y-124557143D01*
X130878285Y-124557143D02*
X131164000Y-124414286D01*
X131164000Y-124414286D02*
X131306857Y-124128571D01*
X131306857Y-124128571D02*
X131306857Y-123842857D01*
X131164000Y-121700000D02*
X131306857Y-121985714D01*
X131306857Y-121985714D02*
X131306857Y-122557143D01*
X131306857Y-122557143D02*
X131164000Y-122842857D01*
X131164000Y-122842857D02*
X130878285Y-122985714D01*
X130878285Y-122985714D02*
X129735428Y-122985714D01*
X129735428Y-122985714D02*
X129449714Y-122842857D01*
X129449714Y-122842857D02*
X129306857Y-122557143D01*
X129306857Y-122557143D02*
X129306857Y-121985714D01*
X129306857Y-121985714D02*
X129449714Y-121700000D01*
X129449714Y-121700000D02*
X129735428Y-121557143D01*
X129735428Y-121557143D02*
X130021142Y-121557143D01*
X130021142Y-121557143D02*
X130306857Y-122985714D01*
X129306857Y-120271428D02*
X131306857Y-120271428D01*
X129592571Y-120271428D02*
X129449714Y-120128571D01*
X129449714Y-120128571D02*
X129306857Y-119842856D01*
X129306857Y-119842856D02*
X129306857Y-119414285D01*
X129306857Y-119414285D02*
X129449714Y-119128571D01*
X129449714Y-119128571D02*
X129735428Y-118985714D01*
X129735428Y-118985714D02*
X131306857Y-118985714D01*
X129306857Y-117557142D02*
X131306857Y-117557142D01*
X129592571Y-117557142D02*
X129449714Y-117414285D01*
X129449714Y-117414285D02*
X129306857Y-117128570D01*
X129306857Y-117128570D02*
X129306857Y-116699999D01*
X129306857Y-116699999D02*
X129449714Y-116414285D01*
X129449714Y-116414285D02*
X129735428Y-116271428D01*
X129735428Y-116271428D02*
X131306857Y-116271428D01*
X131306857Y-113557142D02*
X129735428Y-113557142D01*
X129735428Y-113557142D02*
X129449714Y-113699999D01*
X129449714Y-113699999D02*
X129306857Y-113985713D01*
X129306857Y-113985713D02*
X129306857Y-114557142D01*
X129306857Y-114557142D02*
X129449714Y-114842856D01*
X131164000Y-113557142D02*
X131306857Y-113842856D01*
X131306857Y-113842856D02*
X131306857Y-114557142D01*
X131306857Y-114557142D02*
X131164000Y-114842856D01*
X131164000Y-114842856D02*
X130878285Y-114985713D01*
X130878285Y-114985713D02*
X130592571Y-114985713D01*
X130592571Y-114985713D02*
X130306857Y-114842856D01*
X130306857Y-114842856D02*
X130164000Y-114557142D01*
X130164000Y-114557142D02*
X130164000Y-113842856D01*
X130164000Y-113842856D02*
X130021142Y-113557142D01*
X52847994Y-143029238D02*
X52181327Y-142076857D01*
X51705137Y-143029238D02*
X51705137Y-141029238D01*
X51705137Y-141029238D02*
X52467042Y-141029238D01*
X52467042Y-141029238D02*
X52657518Y-141124476D01*
X52657518Y-141124476D02*
X52752756Y-141219714D01*
X52752756Y-141219714D02*
X52847994Y-141410190D01*
X52847994Y-141410190D02*
X52847994Y-141695904D01*
X52847994Y-141695904D02*
X52752756Y-141886380D01*
X52752756Y-141886380D02*
X52657518Y-141981619D01*
X52657518Y-141981619D02*
X52467042Y-142076857D01*
X52467042Y-142076857D02*
X51705137Y-142076857D01*
X54371804Y-141981619D02*
X53705137Y-141981619D01*
X53705137Y-143029238D02*
X53705137Y-141029238D01*
X53705137Y-141029238D02*
X54657518Y-141029238D01*
X55419423Y-143029238D02*
X55419423Y-141029238D01*
X55419423Y-141029238D02*
X56086090Y-142457809D01*
X56086090Y-142457809D02*
X56752756Y-141029238D01*
X56752756Y-141029238D02*
X56752756Y-143029238D01*
X58562280Y-141029238D02*
X58181327Y-141029238D01*
X58181327Y-141029238D02*
X57990851Y-141124476D01*
X57990851Y-141124476D02*
X57895613Y-141219714D01*
X57895613Y-141219714D02*
X57705137Y-141505428D01*
X57705137Y-141505428D02*
X57609899Y-141886380D01*
X57609899Y-141886380D02*
X57609899Y-142648285D01*
X57609899Y-142648285D02*
X57705137Y-142838761D01*
X57705137Y-142838761D02*
X57800375Y-142934000D01*
X57800375Y-142934000D02*
X57990851Y-143029238D01*
X57990851Y-143029238D02*
X58371804Y-143029238D01*
X58371804Y-143029238D02*
X58562280Y-142934000D01*
X58562280Y-142934000D02*
X58657518Y-142838761D01*
X58657518Y-142838761D02*
X58752756Y-142648285D01*
X58752756Y-142648285D02*
X58752756Y-142172095D01*
X58752756Y-142172095D02*
X58657518Y-141981619D01*
X58657518Y-141981619D02*
X58562280Y-141886380D01*
X58562280Y-141886380D02*
X58371804Y-141791142D01*
X58371804Y-141791142D02*
X57990851Y-141791142D01*
X57990851Y-141791142D02*
X57800375Y-141886380D01*
X57800375Y-141886380D02*
X57705137Y-141981619D01*
X57705137Y-141981619D02*
X57609899Y-142172095D01*
X59705137Y-143029238D02*
X60086089Y-143029238D01*
X60086089Y-143029238D02*
X60276566Y-142934000D01*
X60276566Y-142934000D02*
X60371804Y-142838761D01*
X60371804Y-142838761D02*
X60562280Y-142553047D01*
X60562280Y-142553047D02*
X60657518Y-142172095D01*
X60657518Y-142172095D02*
X60657518Y-141410190D01*
X60657518Y-141410190D02*
X60562280Y-141219714D01*
X60562280Y-141219714D02*
X60467042Y-141124476D01*
X60467042Y-141124476D02*
X60276566Y-141029238D01*
X60276566Y-141029238D02*
X59895613Y-141029238D01*
X59895613Y-141029238D02*
X59705137Y-141124476D01*
X59705137Y-141124476D02*
X59609899Y-141219714D01*
X59609899Y-141219714D02*
X59514661Y-141410190D01*
X59514661Y-141410190D02*
X59514661Y-141886380D01*
X59514661Y-141886380D02*
X59609899Y-142076857D01*
X59609899Y-142076857D02*
X59705137Y-142172095D01*
X59705137Y-142172095D02*
X59895613Y-142267333D01*
X59895613Y-142267333D02*
X60276566Y-142267333D01*
X60276566Y-142267333D02*
X60467042Y-142172095D01*
X60467042Y-142172095D02*
X60562280Y-142076857D01*
X60562280Y-142076857D02*
X60657518Y-141886380D01*
D14*
X112680450Y-58501657D02*
X110966164Y-58501657D01*
X111823307Y-58501657D02*
X111823307Y-55501657D01*
X111823307Y-55501657D02*
X111537593Y-55930228D01*
X111537593Y-55930228D02*
X111251878Y-56215942D01*
X111251878Y-56215942D02*
X110966164Y-56358800D01*
X113680450Y-55501657D02*
X115537593Y-55501657D01*
X115537593Y-55501657D02*
X114537593Y-56644514D01*
X114537593Y-56644514D02*
X114966164Y-56644514D01*
X114966164Y-56644514D02*
X115251879Y-56787371D01*
X115251879Y-56787371D02*
X115394736Y-56930228D01*
X115394736Y-56930228D02*
X115537593Y-57215942D01*
X115537593Y-57215942D02*
X115537593Y-57930228D01*
X115537593Y-57930228D02*
X115394736Y-58215942D01*
X115394736Y-58215942D02*
X115251879Y-58358800D01*
X115251879Y-58358800D02*
X114966164Y-58501657D01*
X114966164Y-58501657D02*
X114109021Y-58501657D01*
X114109021Y-58501657D02*
X113823307Y-58358800D01*
X113823307Y-58358800D02*
X113680450Y-58215942D01*
X117394736Y-55501657D02*
X117680450Y-55501657D01*
X117680450Y-55501657D02*
X117966164Y-55644514D01*
X117966164Y-55644514D02*
X118109022Y-55787371D01*
X118109022Y-55787371D02*
X118251879Y-56073085D01*
X118251879Y-56073085D02*
X118394736Y-56644514D01*
X118394736Y-56644514D02*
X118394736Y-57358800D01*
X118394736Y-57358800D02*
X118251879Y-57930228D01*
X118251879Y-57930228D02*
X118109022Y-58215942D01*
X118109022Y-58215942D02*
X117966164Y-58358800D01*
X117966164Y-58358800D02*
X117680450Y-58501657D01*
X117680450Y-58501657D02*
X117394736Y-58501657D01*
X117394736Y-58501657D02*
X117109022Y-58358800D01*
X117109022Y-58358800D02*
X116966164Y-58215942D01*
X116966164Y-58215942D02*
X116823307Y-57930228D01*
X116823307Y-57930228D02*
X116680450Y-57358800D01*
X116680450Y-57358800D02*
X116680450Y-56644514D01*
X116680450Y-56644514D02*
X116823307Y-56073085D01*
X116823307Y-56073085D02*
X116966164Y-55787371D01*
X116966164Y-55787371D02*
X117109022Y-55644514D01*
X117109022Y-55644514D02*
X117394736Y-55501657D01*
X119823307Y-58358800D02*
X119823307Y-58501657D01*
X119823307Y-58501657D02*
X119680450Y-58787371D01*
X119680450Y-58787371D02*
X119537593Y-58930228D01*
X122537593Y-55501657D02*
X121109021Y-55501657D01*
X121109021Y-55501657D02*
X120966164Y-56930228D01*
X120966164Y-56930228D02*
X121109021Y-56787371D01*
X121109021Y-56787371D02*
X121394736Y-56644514D01*
X121394736Y-56644514D02*
X122109021Y-56644514D01*
X122109021Y-56644514D02*
X122394736Y-56787371D01*
X122394736Y-56787371D02*
X122537593Y-56930228D01*
X122537593Y-56930228D02*
X122680450Y-57215942D01*
X122680450Y-57215942D02*
X122680450Y-57930228D01*
X122680450Y-57930228D02*
X122537593Y-58215942D01*
X122537593Y-58215942D02*
X122394736Y-58358800D01*
X122394736Y-58358800D02*
X122109021Y-58501657D01*
X122109021Y-58501657D02*
X121394736Y-58501657D01*
X121394736Y-58501657D02*
X121109021Y-58358800D01*
X121109021Y-58358800D02*
X120966164Y-58215942D01*
X123680450Y-55501657D02*
X125680450Y-55501657D01*
X125680450Y-55501657D02*
X124394736Y-58501657D01*
D13*
X108547994Y-133729238D02*
X107881327Y-132776857D01*
X107405137Y-133729238D02*
X107405137Y-131729238D01*
X107405137Y-131729238D02*
X108167042Y-131729238D01*
X108167042Y-131729238D02*
X108357518Y-131824476D01*
X108357518Y-131824476D02*
X108452756Y-131919714D01*
X108452756Y-131919714D02*
X108547994Y-132110190D01*
X108547994Y-132110190D02*
X108547994Y-132395904D01*
X108547994Y-132395904D02*
X108452756Y-132586380D01*
X108452756Y-132586380D02*
X108357518Y-132681619D01*
X108357518Y-132681619D02*
X108167042Y-132776857D01*
X108167042Y-132776857D02*
X107405137Y-132776857D01*
X110071804Y-132681619D02*
X109405137Y-132681619D01*
X109405137Y-133729238D02*
X109405137Y-131729238D01*
X109405137Y-131729238D02*
X110357518Y-131729238D01*
X111119423Y-133729238D02*
X111119423Y-131729238D01*
X112071804Y-133729238D02*
X112071804Y-131729238D01*
X112071804Y-131729238D02*
X112547994Y-131729238D01*
X112547994Y-131729238D02*
X112833709Y-131824476D01*
X112833709Y-131824476D02*
X113024185Y-132014952D01*
X113024185Y-132014952D02*
X113119423Y-132205428D01*
X113119423Y-132205428D02*
X113214661Y-132586380D01*
X113214661Y-132586380D02*
X113214661Y-132872095D01*
X113214661Y-132872095D02*
X113119423Y-133253047D01*
X113119423Y-133253047D02*
X113024185Y-133443523D01*
X113024185Y-133443523D02*
X112833709Y-133634000D01*
X112833709Y-133634000D02*
X112547994Y-133729238D01*
X112547994Y-133729238D02*
X112071804Y-133729238D01*
X76852756Y-144224476D02*
X76662280Y-144129238D01*
X76662280Y-144129238D02*
X76376566Y-144129238D01*
X76376566Y-144129238D02*
X76090851Y-144224476D01*
X76090851Y-144224476D02*
X75900375Y-144414952D01*
X75900375Y-144414952D02*
X75805137Y-144605428D01*
X75805137Y-144605428D02*
X75709899Y-144986380D01*
X75709899Y-144986380D02*
X75709899Y-145272095D01*
X75709899Y-145272095D02*
X75805137Y-145653047D01*
X75805137Y-145653047D02*
X75900375Y-145843523D01*
X75900375Y-145843523D02*
X76090851Y-146034000D01*
X76090851Y-146034000D02*
X76376566Y-146129238D01*
X76376566Y-146129238D02*
X76567042Y-146129238D01*
X76567042Y-146129238D02*
X76852756Y-146034000D01*
X76852756Y-146034000D02*
X76947994Y-145938761D01*
X76947994Y-145938761D02*
X76947994Y-145272095D01*
X76947994Y-145272095D02*
X76567042Y-145272095D01*
X77805137Y-146129238D02*
X77805137Y-144129238D01*
X77805137Y-144129238D02*
X78947994Y-146129238D01*
X78947994Y-146129238D02*
X78947994Y-144129238D01*
X79900375Y-146129238D02*
X79900375Y-144129238D01*
X79900375Y-144129238D02*
X80376565Y-144129238D01*
X80376565Y-144129238D02*
X80662280Y-144224476D01*
X80662280Y-144224476D02*
X80852756Y-144414952D01*
X80852756Y-144414952D02*
X80947994Y-144605428D01*
X80947994Y-144605428D02*
X81043232Y-144986380D01*
X81043232Y-144986380D02*
X81043232Y-145272095D01*
X81043232Y-145272095D02*
X80947994Y-145653047D01*
X80947994Y-145653047D02*
X80852756Y-145843523D01*
X80852756Y-145843523D02*
X80662280Y-146034000D01*
X80662280Y-146034000D02*
X80376565Y-146129238D01*
X80376565Y-146129238D02*
X79900375Y-146129238D01*
D14*
X40401657Y-72505264D02*
X42401657Y-72505264D01*
X39258800Y-73219549D02*
X41401657Y-73933835D01*
X41401657Y-73933835D02*
X41401657Y-72076692D01*
X39401657Y-69505263D02*
X39401657Y-70933835D01*
X39401657Y-70933835D02*
X40830228Y-71076692D01*
X40830228Y-71076692D02*
X40687371Y-70933835D01*
X40687371Y-70933835D02*
X40544514Y-70648121D01*
X40544514Y-70648121D02*
X40544514Y-69933835D01*
X40544514Y-69933835D02*
X40687371Y-69648121D01*
X40687371Y-69648121D02*
X40830228Y-69505263D01*
X40830228Y-69505263D02*
X41115942Y-69362406D01*
X41115942Y-69362406D02*
X41830228Y-69362406D01*
X41830228Y-69362406D02*
X42115942Y-69505263D01*
X42115942Y-69505263D02*
X42258800Y-69648121D01*
X42258800Y-69648121D02*
X42401657Y-69933835D01*
X42401657Y-69933835D02*
X42401657Y-70648121D01*
X42401657Y-70648121D02*
X42258800Y-70933835D01*
X42258800Y-70933835D02*
X42115942Y-71076692D01*
X42258800Y-67933835D02*
X42401657Y-67933835D01*
X42401657Y-67933835D02*
X42687371Y-68076692D01*
X42687371Y-68076692D02*
X42830228Y-68219549D01*
X39401657Y-65219549D02*
X39401657Y-66648121D01*
X39401657Y-66648121D02*
X40830228Y-66790978D01*
X40830228Y-66790978D02*
X40687371Y-66648121D01*
X40687371Y-66648121D02*
X40544514Y-66362407D01*
X40544514Y-66362407D02*
X40544514Y-65648121D01*
X40544514Y-65648121D02*
X40687371Y-65362407D01*
X40687371Y-65362407D02*
X40830228Y-65219549D01*
X40830228Y-65219549D02*
X41115942Y-65076692D01*
X41115942Y-65076692D02*
X41830228Y-65076692D01*
X41830228Y-65076692D02*
X42115942Y-65219549D01*
X42115942Y-65219549D02*
X42258800Y-65362407D01*
X42258800Y-65362407D02*
X42401657Y-65648121D01*
X42401657Y-65648121D02*
X42401657Y-66362407D01*
X42401657Y-66362407D02*
X42258800Y-66648121D01*
X42258800Y-66648121D02*
X42115942Y-66790978D01*
X39401657Y-64076692D02*
X39401657Y-62076692D01*
X39401657Y-62076692D02*
X42401657Y-63362406D01*
D15*
X53407267Y-59968876D02*
X54740600Y-63968876D01*
X54740600Y-63968876D02*
X56073934Y-59968876D01*
X59692981Y-63587923D02*
X59502505Y-63778400D01*
X59502505Y-63778400D02*
X58931076Y-63968876D01*
X58931076Y-63968876D02*
X58550124Y-63968876D01*
X58550124Y-63968876D02*
X57978695Y-63778400D01*
X57978695Y-63778400D02*
X57597743Y-63397447D01*
X57597743Y-63397447D02*
X57407266Y-63016495D01*
X57407266Y-63016495D02*
X57216790Y-62254590D01*
X57216790Y-62254590D02*
X57216790Y-61683161D01*
X57216790Y-61683161D02*
X57407266Y-60921257D01*
X57407266Y-60921257D02*
X57597743Y-60540304D01*
X57597743Y-60540304D02*
X57978695Y-60159352D01*
X57978695Y-60159352D02*
X58550124Y-59968876D01*
X58550124Y-59968876D02*
X58931076Y-59968876D01*
X58931076Y-59968876D02*
X59502505Y-60159352D01*
X59502505Y-60159352D02*
X59692981Y-60349828D01*
X63692981Y-63587923D02*
X63502505Y-63778400D01*
X63502505Y-63778400D02*
X62931076Y-63968876D01*
X62931076Y-63968876D02*
X62550124Y-63968876D01*
X62550124Y-63968876D02*
X61978695Y-63778400D01*
X61978695Y-63778400D02*
X61597743Y-63397447D01*
X61597743Y-63397447D02*
X61407266Y-63016495D01*
X61407266Y-63016495D02*
X61216790Y-62254590D01*
X61216790Y-62254590D02*
X61216790Y-61683161D01*
X61216790Y-61683161D02*
X61407266Y-60921257D01*
X61407266Y-60921257D02*
X61597743Y-60540304D01*
X61597743Y-60540304D02*
X61978695Y-60159352D01*
X61978695Y-60159352D02*
X62550124Y-59968876D01*
X62550124Y-59968876D02*
X62931076Y-59968876D01*
X62931076Y-59968876D02*
X63502505Y-60159352D01*
X63502505Y-60159352D02*
X63692981Y-60349828D01*
D10*
X70202568Y-87003428D02*
X70202568Y-85503428D01*
X70202568Y-85503428D02*
X70535901Y-86574857D01*
X70535901Y-86574857D02*
X70869234Y-85503428D01*
X70869234Y-85503428D02*
X70869234Y-87003428D01*
X71345425Y-87003428D02*
X71345425Y-85503428D01*
X71821615Y-87003428D02*
X71821615Y-85503428D01*
X71821615Y-85503428D02*
X72393043Y-87003428D01*
X72393043Y-87003428D02*
X72393043Y-85503428D01*
D13*
X44470761Y-96247994D02*
X45423142Y-95581327D01*
X44470761Y-95105137D02*
X46470761Y-95105137D01*
X46470761Y-95105137D02*
X46470761Y-95867042D01*
X46470761Y-95867042D02*
X46375523Y-96057518D01*
X46375523Y-96057518D02*
X46280285Y-96152756D01*
X46280285Y-96152756D02*
X46089809Y-96247994D01*
X46089809Y-96247994D02*
X45804095Y-96247994D01*
X45804095Y-96247994D02*
X45613619Y-96152756D01*
X45613619Y-96152756D02*
X45518380Y-96057518D01*
X45518380Y-96057518D02*
X45423142Y-95867042D01*
X45423142Y-95867042D02*
X45423142Y-95105137D01*
X45518380Y-97105137D02*
X45518380Y-97771804D01*
X44470761Y-98057518D02*
X44470761Y-97105137D01*
X44470761Y-97105137D02*
X46470761Y-97105137D01*
X46470761Y-97105137D02*
X46470761Y-98057518D01*
X45518380Y-98914661D02*
X45518380Y-99581328D01*
X44470761Y-99867042D02*
X44470761Y-98914661D01*
X44470761Y-98914661D02*
X46470761Y-98914661D01*
X46470761Y-98914661D02*
X46470761Y-99867042D01*
X44470761Y-100724185D02*
X46470761Y-100724185D01*
X46470761Y-100724185D02*
X46470761Y-101200375D01*
X46470761Y-101200375D02*
X46375523Y-101486090D01*
X46375523Y-101486090D02*
X46185047Y-101676566D01*
X46185047Y-101676566D02*
X45994571Y-101771804D01*
X45994571Y-101771804D02*
X45613619Y-101867042D01*
X45613619Y-101867042D02*
X45327904Y-101867042D01*
X45327904Y-101867042D02*
X44946952Y-101771804D01*
X44946952Y-101771804D02*
X44756476Y-101676566D01*
X44756476Y-101676566D02*
X44566000Y-101486090D01*
X44566000Y-101486090D02*
X44470761Y-101200375D01*
X44470761Y-101200375D02*
X44470761Y-100724185D01*
X44566000Y-104152757D02*
X44470761Y-104438471D01*
X44470761Y-104438471D02*
X44470761Y-104914662D01*
X44470761Y-104914662D02*
X44566000Y-105105138D01*
X44566000Y-105105138D02*
X44661238Y-105200376D01*
X44661238Y-105200376D02*
X44851714Y-105295614D01*
X44851714Y-105295614D02*
X45042190Y-105295614D01*
X45042190Y-105295614D02*
X45232666Y-105200376D01*
X45232666Y-105200376D02*
X45327904Y-105105138D01*
X45327904Y-105105138D02*
X45423142Y-104914662D01*
X45423142Y-104914662D02*
X45518380Y-104533709D01*
X45518380Y-104533709D02*
X45613619Y-104343233D01*
X45613619Y-104343233D02*
X45708857Y-104247995D01*
X45708857Y-104247995D02*
X45899333Y-104152757D01*
X45899333Y-104152757D02*
X46089809Y-104152757D01*
X46089809Y-104152757D02*
X46280285Y-104247995D01*
X46280285Y-104247995D02*
X46375523Y-104343233D01*
X46375523Y-104343233D02*
X46470761Y-104533709D01*
X46470761Y-104533709D02*
X46470761Y-105009900D01*
X46470761Y-105009900D02*
X46375523Y-105295614D01*
X46470761Y-105962281D02*
X44470761Y-106438471D01*
X44470761Y-106438471D02*
X45899333Y-106819424D01*
X45899333Y-106819424D02*
X44470761Y-107200376D01*
X44470761Y-107200376D02*
X46470761Y-107676567D01*
X44470761Y-108438471D02*
X46470761Y-108438471D01*
X46470761Y-109105138D02*
X46470761Y-110247995D01*
X44470761Y-109676566D02*
X46470761Y-109676566D01*
X44661238Y-112057519D02*
X44566000Y-111962281D01*
X44566000Y-111962281D02*
X44470761Y-111676567D01*
X44470761Y-111676567D02*
X44470761Y-111486091D01*
X44470761Y-111486091D02*
X44566000Y-111200376D01*
X44566000Y-111200376D02*
X44756476Y-111009900D01*
X44756476Y-111009900D02*
X44946952Y-110914662D01*
X44946952Y-110914662D02*
X45327904Y-110819424D01*
X45327904Y-110819424D02*
X45613619Y-110819424D01*
X45613619Y-110819424D02*
X45994571Y-110914662D01*
X45994571Y-110914662D02*
X46185047Y-111009900D01*
X46185047Y-111009900D02*
X46375523Y-111200376D01*
X46375523Y-111200376D02*
X46470761Y-111486091D01*
X46470761Y-111486091D02*
X46470761Y-111676567D01*
X46470761Y-111676567D02*
X46375523Y-111962281D01*
X46375523Y-111962281D02*
X46280285Y-112057519D01*
X44470761Y-112914662D02*
X46470761Y-112914662D01*
X45518380Y-112914662D02*
X45518380Y-114057519D01*
X44470761Y-114057519D02*
X46470761Y-114057519D01*
D14*
X107080450Y-145401657D02*
X105366164Y-145401657D01*
X106223307Y-145401657D02*
X106223307Y-142401657D01*
X106223307Y-142401657D02*
X105937593Y-142830228D01*
X105937593Y-142830228D02*
X105651878Y-143115942D01*
X105651878Y-143115942D02*
X105366164Y-143258800D01*
X108080450Y-142401657D02*
X109937593Y-142401657D01*
X109937593Y-142401657D02*
X108937593Y-143544514D01*
X108937593Y-143544514D02*
X109366164Y-143544514D01*
X109366164Y-143544514D02*
X109651879Y-143687371D01*
X109651879Y-143687371D02*
X109794736Y-143830228D01*
X109794736Y-143830228D02*
X109937593Y-144115942D01*
X109937593Y-144115942D02*
X109937593Y-144830228D01*
X109937593Y-144830228D02*
X109794736Y-145115942D01*
X109794736Y-145115942D02*
X109651879Y-145258800D01*
X109651879Y-145258800D02*
X109366164Y-145401657D01*
X109366164Y-145401657D02*
X108509021Y-145401657D01*
X108509021Y-145401657D02*
X108223307Y-145258800D01*
X108223307Y-145258800D02*
X108080450Y-145115942D01*
X111794736Y-142401657D02*
X112080450Y-142401657D01*
X112080450Y-142401657D02*
X112366164Y-142544514D01*
X112366164Y-142544514D02*
X112509022Y-142687371D01*
X112509022Y-142687371D02*
X112651879Y-142973085D01*
X112651879Y-142973085D02*
X112794736Y-143544514D01*
X112794736Y-143544514D02*
X112794736Y-144258800D01*
X112794736Y-144258800D02*
X112651879Y-144830228D01*
X112651879Y-144830228D02*
X112509022Y-145115942D01*
X112509022Y-145115942D02*
X112366164Y-145258800D01*
X112366164Y-145258800D02*
X112080450Y-145401657D01*
X112080450Y-145401657D02*
X111794736Y-145401657D01*
X111794736Y-145401657D02*
X111509022Y-145258800D01*
X111509022Y-145258800D02*
X111366164Y-145115942D01*
X111366164Y-145115942D02*
X111223307Y-144830228D01*
X111223307Y-144830228D02*
X111080450Y-144258800D01*
X111080450Y-144258800D02*
X111080450Y-143544514D01*
X111080450Y-143544514D02*
X111223307Y-142973085D01*
X111223307Y-142973085D02*
X111366164Y-142687371D01*
X111366164Y-142687371D02*
X111509022Y-142544514D01*
X111509022Y-142544514D02*
X111794736Y-142401657D01*
X114223307Y-145258800D02*
X114223307Y-145401657D01*
X114223307Y-145401657D02*
X114080450Y-145687371D01*
X114080450Y-145687371D02*
X113937593Y-145830228D01*
X119366164Y-145401657D02*
X117651878Y-145401657D01*
X118509021Y-145401657D02*
X118509021Y-142401657D01*
X118509021Y-142401657D02*
X118223307Y-142830228D01*
X118223307Y-142830228D02*
X117937592Y-143115942D01*
X117937592Y-143115942D02*
X117651878Y-143258800D01*
X121937593Y-143401657D02*
X121937593Y-145401657D01*
X121223307Y-142258800D02*
X120509021Y-144401657D01*
X120509021Y-144401657D02*
X122366164Y-144401657D01*
X124937593Y-142401657D02*
X123509021Y-142401657D01*
X123509021Y-142401657D02*
X123366164Y-143830228D01*
X123366164Y-143830228D02*
X123509021Y-143687371D01*
X123509021Y-143687371D02*
X123794736Y-143544514D01*
X123794736Y-143544514D02*
X124509021Y-143544514D01*
X124509021Y-143544514D02*
X124794736Y-143687371D01*
X124794736Y-143687371D02*
X124937593Y-143830228D01*
X124937593Y-143830228D02*
X125080450Y-144115942D01*
X125080450Y-144115942D02*
X125080450Y-144830228D01*
X125080450Y-144830228D02*
X124937593Y-145115942D01*
X124937593Y-145115942D02*
X124794736Y-145258800D01*
X124794736Y-145258800D02*
X124509021Y-145401657D01*
X124509021Y-145401657D02*
X123794736Y-145401657D01*
X123794736Y-145401657D02*
X123509021Y-145258800D01*
X123509021Y-145258800D02*
X123366164Y-145115942D01*
D10*
X95907330Y-102403428D02*
X96526377Y-102403428D01*
X96526377Y-102403428D02*
X96193044Y-102974857D01*
X96193044Y-102974857D02*
X96335901Y-102974857D01*
X96335901Y-102974857D02*
X96431139Y-103046285D01*
X96431139Y-103046285D02*
X96478758Y-103117714D01*
X96478758Y-103117714D02*
X96526377Y-103260571D01*
X96526377Y-103260571D02*
X96526377Y-103617714D01*
X96526377Y-103617714D02*
X96478758Y-103760571D01*
X96478758Y-103760571D02*
X96431139Y-103832000D01*
X96431139Y-103832000D02*
X96335901Y-103903428D01*
X96335901Y-103903428D02*
X96050187Y-103903428D01*
X96050187Y-103903428D02*
X95954949Y-103832000D01*
X95954949Y-103832000D02*
X95907330Y-103760571D01*
X96812092Y-102403428D02*
X97145425Y-103903428D01*
X97145425Y-103903428D02*
X97478758Y-102403428D01*
X97716854Y-102403428D02*
X98335901Y-102403428D01*
X98335901Y-102403428D02*
X98002568Y-102974857D01*
X98002568Y-102974857D02*
X98145425Y-102974857D01*
X98145425Y-102974857D02*
X98240663Y-103046285D01*
X98240663Y-103046285D02*
X98288282Y-103117714D01*
X98288282Y-103117714D02*
X98335901Y-103260571D01*
X98335901Y-103260571D02*
X98335901Y-103617714D01*
X98335901Y-103617714D02*
X98288282Y-103760571D01*
X98288282Y-103760571D02*
X98240663Y-103832000D01*
X98240663Y-103832000D02*
X98145425Y-103903428D01*
X98145425Y-103903428D02*
X97859711Y-103903428D01*
X97859711Y-103903428D02*
X97764473Y-103832000D01*
X97764473Y-103832000D02*
X97716854Y-103760571D01*
X81202568Y-114017714D02*
X81535901Y-114017714D01*
X81678758Y-114803428D02*
X81202568Y-114803428D01*
X81202568Y-114803428D02*
X81202568Y-113303428D01*
X81202568Y-113303428D02*
X81678758Y-113303428D01*
X82107330Y-114803428D02*
X82107330Y-113303428D01*
X82107330Y-113303428D02*
X82678758Y-114803428D01*
X82678758Y-114803428D02*
X82678758Y-113303428D01*
X50773996Y-94703428D02*
X50440663Y-93989142D01*
X50202568Y-94703428D02*
X50202568Y-93203428D01*
X50202568Y-93203428D02*
X50583520Y-93203428D01*
X50583520Y-93203428D02*
X50678758Y-93274857D01*
X50678758Y-93274857D02*
X50726377Y-93346285D01*
X50726377Y-93346285D02*
X50773996Y-93489142D01*
X50773996Y-93489142D02*
X50773996Y-93703428D01*
X50773996Y-93703428D02*
X50726377Y-93846285D01*
X50726377Y-93846285D02*
X50678758Y-93917714D01*
X50678758Y-93917714D02*
X50583520Y-93989142D01*
X50583520Y-93989142D02*
X50202568Y-93989142D01*
X51202568Y-93917714D02*
X51535901Y-93917714D01*
X51678758Y-94703428D02*
X51202568Y-94703428D01*
X51202568Y-94703428D02*
X51202568Y-93203428D01*
X51202568Y-93203428D02*
X51678758Y-93203428D01*
X52107330Y-93917714D02*
X52440663Y-93917714D01*
X52583520Y-94703428D02*
X52107330Y-94703428D01*
X52107330Y-94703428D02*
X52107330Y-93203428D01*
X52107330Y-93203428D02*
X52583520Y-93203428D01*
X53012092Y-94703428D02*
X53012092Y-93203428D01*
X53012092Y-93203428D02*
X53250187Y-93203428D01*
X53250187Y-93203428D02*
X53393044Y-93274857D01*
X53393044Y-93274857D02*
X53488282Y-93417714D01*
X53488282Y-93417714D02*
X53535901Y-93560571D01*
X53535901Y-93560571D02*
X53583520Y-93846285D01*
X53583520Y-93846285D02*
X53583520Y-94060571D01*
X53583520Y-94060571D02*
X53535901Y-94346285D01*
X53535901Y-94346285D02*
X53488282Y-94489142D01*
X53488282Y-94489142D02*
X53393044Y-94632000D01*
X53393044Y-94632000D02*
X53250187Y-94703428D01*
X53250187Y-94703428D02*
X53012092Y-94703428D01*
D16*
X113334438Y-97046366D02*
X115334438Y-96379700D01*
X115334438Y-96379700D02*
X113334438Y-95713033D01*
X115143961Y-93903509D02*
X115239200Y-93998747D01*
X115239200Y-93998747D02*
X115334438Y-94284461D01*
X115334438Y-94284461D02*
X115334438Y-94474937D01*
X115334438Y-94474937D02*
X115239200Y-94760652D01*
X115239200Y-94760652D02*
X115048723Y-94951128D01*
X115048723Y-94951128D02*
X114858247Y-95046366D01*
X114858247Y-95046366D02*
X114477295Y-95141604D01*
X114477295Y-95141604D02*
X114191580Y-95141604D01*
X114191580Y-95141604D02*
X113810628Y-95046366D01*
X113810628Y-95046366D02*
X113620152Y-94951128D01*
X113620152Y-94951128D02*
X113429676Y-94760652D01*
X113429676Y-94760652D02*
X113334438Y-94474937D01*
X113334438Y-94474937D02*
X113334438Y-94284461D01*
X113334438Y-94284461D02*
X113429676Y-93998747D01*
X113429676Y-93998747D02*
X113524914Y-93903509D01*
X115143961Y-91903509D02*
X115239200Y-91998747D01*
X115239200Y-91998747D02*
X115334438Y-92284461D01*
X115334438Y-92284461D02*
X115334438Y-92474937D01*
X115334438Y-92474937D02*
X115239200Y-92760652D01*
X115239200Y-92760652D02*
X115048723Y-92951128D01*
X115048723Y-92951128D02*
X114858247Y-93046366D01*
X114858247Y-93046366D02*
X114477295Y-93141604D01*
X114477295Y-93141604D02*
X114191580Y-93141604D01*
X114191580Y-93141604D02*
X113810628Y-93046366D01*
X113810628Y-93046366D02*
X113620152Y-92951128D01*
X113620152Y-92951128D02*
X113429676Y-92760652D01*
X113429676Y-92760652D02*
X113334438Y-92474937D01*
X113334438Y-92474937D02*
X113334438Y-92284461D01*
X113334438Y-92284461D02*
X113429676Y-91998747D01*
X113429676Y-91998747D02*
X113524914Y-91903509D01*
D13*
X80209899Y-143534000D02*
X80495613Y-143629238D01*
X80495613Y-143629238D02*
X80971804Y-143629238D01*
X80971804Y-143629238D02*
X81162280Y-143534000D01*
X81162280Y-143534000D02*
X81257518Y-143438761D01*
X81257518Y-143438761D02*
X81352756Y-143248285D01*
X81352756Y-143248285D02*
X81352756Y-143057809D01*
X81352756Y-143057809D02*
X81257518Y-142867333D01*
X81257518Y-142867333D02*
X81162280Y-142772095D01*
X81162280Y-142772095D02*
X80971804Y-142676857D01*
X80971804Y-142676857D02*
X80590851Y-142581619D01*
X80590851Y-142581619D02*
X80400375Y-142486380D01*
X80400375Y-142486380D02*
X80305137Y-142391142D01*
X80305137Y-142391142D02*
X80209899Y-142200666D01*
X80209899Y-142200666D02*
X80209899Y-142010190D01*
X80209899Y-142010190D02*
X80305137Y-141819714D01*
X80305137Y-141819714D02*
X80400375Y-141724476D01*
X80400375Y-141724476D02*
X80590851Y-141629238D01*
X80590851Y-141629238D02*
X81067042Y-141629238D01*
X81067042Y-141629238D02*
X81352756Y-141724476D01*
X82209899Y-143629238D02*
X82209899Y-141629238D01*
X82209899Y-141629238D02*
X82971804Y-141629238D01*
X82971804Y-141629238D02*
X83162280Y-141724476D01*
X83162280Y-141724476D02*
X83257518Y-141819714D01*
X83257518Y-141819714D02*
X83352756Y-142010190D01*
X83352756Y-142010190D02*
X83352756Y-142295904D01*
X83352756Y-142295904D02*
X83257518Y-142486380D01*
X83257518Y-142486380D02*
X83162280Y-142581619D01*
X83162280Y-142581619D02*
X82971804Y-142676857D01*
X82971804Y-142676857D02*
X82209899Y-142676857D01*
X84209899Y-143629238D02*
X84209899Y-141629238D01*
X85162280Y-142867333D02*
X86686090Y-142867333D01*
X87638470Y-142581619D02*
X88305137Y-142581619D01*
X88590851Y-143629238D02*
X87638470Y-143629238D01*
X87638470Y-143629238D02*
X87638470Y-141629238D01*
X87638470Y-141629238D02*
X88590851Y-141629238D01*
X89447994Y-142581619D02*
X90114661Y-142581619D01*
X90400375Y-143629238D02*
X89447994Y-143629238D01*
X89447994Y-143629238D02*
X89447994Y-141629238D01*
X89447994Y-141629238D02*
X90400375Y-141629238D01*
X91257518Y-143629238D02*
X91257518Y-141629238D01*
X91257518Y-141629238D02*
X92019423Y-141629238D01*
X92019423Y-141629238D02*
X92209899Y-141724476D01*
X92209899Y-141724476D02*
X92305137Y-141819714D01*
X92305137Y-141819714D02*
X92400375Y-142010190D01*
X92400375Y-142010190D02*
X92400375Y-142295904D01*
X92400375Y-142295904D02*
X92305137Y-142486380D01*
X92305137Y-142486380D02*
X92209899Y-142581619D01*
X92209899Y-142581619D02*
X92019423Y-142676857D01*
X92019423Y-142676857D02*
X91257518Y-142676857D01*
X94400375Y-143629238D02*
X93733708Y-142676857D01*
X93257518Y-143629238D02*
X93257518Y-141629238D01*
X93257518Y-141629238D02*
X94019423Y-141629238D01*
X94019423Y-141629238D02*
X94209899Y-141724476D01*
X94209899Y-141724476D02*
X94305137Y-141819714D01*
X94305137Y-141819714D02*
X94400375Y-142010190D01*
X94400375Y-142010190D02*
X94400375Y-142295904D01*
X94400375Y-142295904D02*
X94305137Y-142486380D01*
X94305137Y-142486380D02*
X94209899Y-142581619D01*
X94209899Y-142581619D02*
X94019423Y-142676857D01*
X94019423Y-142676857D02*
X93257518Y-142676857D01*
X95638470Y-141629238D02*
X96019423Y-141629238D01*
X96019423Y-141629238D02*
X96209899Y-141724476D01*
X96209899Y-141724476D02*
X96400375Y-141914952D01*
X96400375Y-141914952D02*
X96495613Y-142295904D01*
X96495613Y-142295904D02*
X96495613Y-142962571D01*
X96495613Y-142962571D02*
X96400375Y-143343523D01*
X96400375Y-143343523D02*
X96209899Y-143534000D01*
X96209899Y-143534000D02*
X96019423Y-143629238D01*
X96019423Y-143629238D02*
X95638470Y-143629238D01*
X95638470Y-143629238D02*
X95447994Y-143534000D01*
X95447994Y-143534000D02*
X95257518Y-143343523D01*
X95257518Y-143343523D02*
X95162280Y-142962571D01*
X95162280Y-142962571D02*
X95162280Y-142295904D01*
X95162280Y-142295904D02*
X95257518Y-141914952D01*
X95257518Y-141914952D02*
X95447994Y-141724476D01*
X95447994Y-141724476D02*
X95638470Y-141629238D01*
X97352756Y-143629238D02*
X97352756Y-141629238D01*
X97352756Y-141629238D02*
X98019423Y-143057809D01*
X98019423Y-143057809D02*
X98686089Y-141629238D01*
X98686089Y-141629238D02*
X98686089Y-143629238D01*
D15*
X75573934Y-61159352D02*
X75192981Y-60968876D01*
X75192981Y-60968876D02*
X74621553Y-60968876D01*
X74621553Y-60968876D02*
X74050124Y-61159352D01*
X74050124Y-61159352D02*
X73669172Y-61540304D01*
X73669172Y-61540304D02*
X73478695Y-61921257D01*
X73478695Y-61921257D02*
X73288219Y-62683161D01*
X73288219Y-62683161D02*
X73288219Y-63254590D01*
X73288219Y-63254590D02*
X73478695Y-64016495D01*
X73478695Y-64016495D02*
X73669172Y-64397447D01*
X73669172Y-64397447D02*
X74050124Y-64778400D01*
X74050124Y-64778400D02*
X74621553Y-64968876D01*
X74621553Y-64968876D02*
X75002505Y-64968876D01*
X75002505Y-64968876D02*
X75573934Y-64778400D01*
X75573934Y-64778400D02*
X75764410Y-64587923D01*
X75764410Y-64587923D02*
X75764410Y-63254590D01*
X75764410Y-63254590D02*
X75002505Y-63254590D01*
X77478695Y-64968876D02*
X77478695Y-60968876D01*
X77478695Y-60968876D02*
X79764410Y-64968876D01*
X79764410Y-64968876D02*
X79764410Y-60968876D01*
X81669171Y-64968876D02*
X81669171Y-60968876D01*
X81669171Y-60968876D02*
X82621552Y-60968876D01*
X82621552Y-60968876D02*
X83192981Y-61159352D01*
X83192981Y-61159352D02*
X83573933Y-61540304D01*
X83573933Y-61540304D02*
X83764410Y-61921257D01*
X83764410Y-61921257D02*
X83954886Y-62683161D01*
X83954886Y-62683161D02*
X83954886Y-63254590D01*
X83954886Y-63254590D02*
X83764410Y-64016495D01*
X83764410Y-64016495D02*
X83573933Y-64397447D01*
X83573933Y-64397447D02*
X83192981Y-64778400D01*
X83192981Y-64778400D02*
X82621552Y-64968876D01*
X82621552Y-64968876D02*
X81669171Y-64968876D01*
D10*
X106454949Y-114632000D02*
X106597806Y-114703428D01*
X106597806Y-114703428D02*
X106835901Y-114703428D01*
X106835901Y-114703428D02*
X106931139Y-114632000D01*
X106931139Y-114632000D02*
X106978758Y-114560571D01*
X106978758Y-114560571D02*
X107026377Y-114417714D01*
X107026377Y-114417714D02*
X107026377Y-114274857D01*
X107026377Y-114274857D02*
X106978758Y-114132000D01*
X106978758Y-114132000D02*
X106931139Y-114060571D01*
X106931139Y-114060571D02*
X106835901Y-113989142D01*
X106835901Y-113989142D02*
X106645425Y-113917714D01*
X106645425Y-113917714D02*
X106550187Y-113846285D01*
X106550187Y-113846285D02*
X106502568Y-113774857D01*
X106502568Y-113774857D02*
X106454949Y-113632000D01*
X106454949Y-113632000D02*
X106454949Y-113489142D01*
X106454949Y-113489142D02*
X106502568Y-113346285D01*
X106502568Y-113346285D02*
X106550187Y-113274857D01*
X106550187Y-113274857D02*
X106645425Y-113203428D01*
X106645425Y-113203428D02*
X106883520Y-113203428D01*
X106883520Y-113203428D02*
X107026377Y-113274857D01*
X108026377Y-114560571D02*
X107978758Y-114632000D01*
X107978758Y-114632000D02*
X107835901Y-114703428D01*
X107835901Y-114703428D02*
X107740663Y-114703428D01*
X107740663Y-114703428D02*
X107597806Y-114632000D01*
X107597806Y-114632000D02*
X107502568Y-114489142D01*
X107502568Y-114489142D02*
X107454949Y-114346285D01*
X107454949Y-114346285D02*
X107407330Y-114060571D01*
X107407330Y-114060571D02*
X107407330Y-113846285D01*
X107407330Y-113846285D02*
X107454949Y-113560571D01*
X107454949Y-113560571D02*
X107502568Y-113417714D01*
X107502568Y-113417714D02*
X107597806Y-113274857D01*
X107597806Y-113274857D02*
X107740663Y-113203428D01*
X107740663Y-113203428D02*
X107835901Y-113203428D01*
X107835901Y-113203428D02*
X107978758Y-113274857D01*
X107978758Y-113274857D02*
X108026377Y-113346285D01*
X108931139Y-114703428D02*
X108454949Y-114703428D01*
X108454949Y-114703428D02*
X108454949Y-113203428D01*
D13*
X42029238Y-86952005D02*
X41076857Y-87618672D01*
X42029238Y-88094862D02*
X40029238Y-88094862D01*
X40029238Y-88094862D02*
X40029238Y-87332957D01*
X40029238Y-87332957D02*
X40124476Y-87142481D01*
X40124476Y-87142481D02*
X40219714Y-87047243D01*
X40219714Y-87047243D02*
X40410190Y-86952005D01*
X40410190Y-86952005D02*
X40695904Y-86952005D01*
X40695904Y-86952005D02*
X40886380Y-87047243D01*
X40886380Y-87047243D02*
X40981619Y-87142481D01*
X40981619Y-87142481D02*
X41076857Y-87332957D01*
X41076857Y-87332957D02*
X41076857Y-88094862D01*
X40029238Y-86380576D02*
X40029238Y-85237719D01*
X42029238Y-85809148D02*
X40029238Y-85809148D01*
X41838761Y-83428195D02*
X41934000Y-83523433D01*
X41934000Y-83523433D02*
X42029238Y-83809147D01*
X42029238Y-83809147D02*
X42029238Y-83999623D01*
X42029238Y-83999623D02*
X41934000Y-84285338D01*
X41934000Y-84285338D02*
X41743523Y-84475814D01*
X41743523Y-84475814D02*
X41553047Y-84571052D01*
X41553047Y-84571052D02*
X41172095Y-84666290D01*
X41172095Y-84666290D02*
X40886380Y-84666290D01*
X40886380Y-84666290D02*
X40505428Y-84571052D01*
X40505428Y-84571052D02*
X40314952Y-84475814D01*
X40314952Y-84475814D02*
X40124476Y-84285338D01*
X40124476Y-84285338D02*
X40029238Y-83999623D01*
X40029238Y-83999623D02*
X40029238Y-83809147D01*
X40029238Y-83809147D02*
X40124476Y-83523433D01*
X40124476Y-83523433D02*
X40219714Y-83428195D01*
X72009899Y-148657809D02*
X72962280Y-148657809D01*
X71819423Y-149229238D02*
X72486089Y-147229238D01*
X72486089Y-147229238D02*
X73152756Y-149229238D01*
X73819423Y-149229238D02*
X73819423Y-147229238D01*
X73819423Y-147229238D02*
X74962280Y-149229238D01*
X74962280Y-149229238D02*
X74962280Y-147229238D01*
X75628947Y-147229238D02*
X76771804Y-147229238D01*
X76200375Y-149229238D02*
X76200375Y-147229238D01*
X77438471Y-148181619D02*
X78105138Y-148181619D01*
X78390852Y-149229238D02*
X77438471Y-149229238D01*
X77438471Y-149229238D02*
X77438471Y-147229238D01*
X77438471Y-147229238D02*
X78390852Y-147229238D01*
X79247995Y-149229238D02*
X79247995Y-147229238D01*
X79247995Y-147229238D02*
X80390852Y-149229238D01*
X80390852Y-149229238D02*
X80390852Y-147229238D01*
X81343233Y-149229238D02*
X81343233Y-147229238D01*
X81343233Y-147229238D02*
X82486090Y-149229238D01*
X82486090Y-149229238D02*
X82486090Y-147229238D01*
X83343233Y-148657809D02*
X84295614Y-148657809D01*
X83152757Y-149229238D02*
X83819423Y-147229238D01*
X83819423Y-147229238D02*
X84486090Y-149229238D01*
D10*
X40973996Y-140303428D02*
X40640663Y-139589142D01*
X40402568Y-140303428D02*
X40402568Y-138803428D01*
X40402568Y-138803428D02*
X40783520Y-138803428D01*
X40783520Y-138803428D02*
X40878758Y-138874857D01*
X40878758Y-138874857D02*
X40926377Y-138946285D01*
X40926377Y-138946285D02*
X40973996Y-139089142D01*
X40973996Y-139089142D02*
X40973996Y-139303428D01*
X40973996Y-139303428D02*
X40926377Y-139446285D01*
X40926377Y-139446285D02*
X40878758Y-139517714D01*
X40878758Y-139517714D02*
X40783520Y-139589142D01*
X40783520Y-139589142D02*
X40402568Y-139589142D01*
X41354949Y-140232000D02*
X41497806Y-140303428D01*
X41497806Y-140303428D02*
X41735901Y-140303428D01*
X41735901Y-140303428D02*
X41831139Y-140232000D01*
X41831139Y-140232000D02*
X41878758Y-140160571D01*
X41878758Y-140160571D02*
X41926377Y-140017714D01*
X41926377Y-140017714D02*
X41926377Y-139874857D01*
X41926377Y-139874857D02*
X41878758Y-139732000D01*
X41878758Y-139732000D02*
X41831139Y-139660571D01*
X41831139Y-139660571D02*
X41735901Y-139589142D01*
X41735901Y-139589142D02*
X41545425Y-139517714D01*
X41545425Y-139517714D02*
X41450187Y-139446285D01*
X41450187Y-139446285D02*
X41402568Y-139374857D01*
X41402568Y-139374857D02*
X41354949Y-139232000D01*
X41354949Y-139232000D02*
X41354949Y-139089142D01*
X41354949Y-139089142D02*
X41402568Y-138946285D01*
X41402568Y-138946285D02*
X41450187Y-138874857D01*
X41450187Y-138874857D02*
X41545425Y-138803428D01*
X41545425Y-138803428D02*
X41783520Y-138803428D01*
X41783520Y-138803428D02*
X41926377Y-138874857D01*
X42212092Y-138803428D02*
X42783520Y-138803428D01*
X42497806Y-140303428D02*
X42497806Y-138803428D01*
D13*
X44329238Y-129494862D02*
X42329238Y-129494862D01*
X43281619Y-129494862D02*
X43281619Y-128352005D01*
X44329238Y-128352005D02*
X42329238Y-128352005D01*
X43281619Y-127399624D02*
X43281619Y-126732957D01*
X44329238Y-126447243D02*
X44329238Y-127399624D01*
X44329238Y-127399624D02*
X42329238Y-127399624D01*
X42329238Y-127399624D02*
X42329238Y-126447243D01*
X42329238Y-125780576D02*
X44329238Y-124447243D01*
X42329238Y-124447243D02*
X44329238Y-125780576D01*
X43281619Y-121494861D02*
X43376857Y-121209147D01*
X43376857Y-121209147D02*
X43472095Y-121113909D01*
X43472095Y-121113909D02*
X43662571Y-121018671D01*
X43662571Y-121018671D02*
X43948285Y-121018671D01*
X43948285Y-121018671D02*
X44138761Y-121113909D01*
X44138761Y-121113909D02*
X44234000Y-121209147D01*
X44234000Y-121209147D02*
X44329238Y-121399623D01*
X44329238Y-121399623D02*
X44329238Y-122161528D01*
X44329238Y-122161528D02*
X42329238Y-122161528D01*
X42329238Y-122161528D02*
X42329238Y-121494861D01*
X42329238Y-121494861D02*
X42424476Y-121304385D01*
X42424476Y-121304385D02*
X42519714Y-121209147D01*
X42519714Y-121209147D02*
X42710190Y-121113909D01*
X42710190Y-121113909D02*
X42900666Y-121113909D01*
X42900666Y-121113909D02*
X43091142Y-121209147D01*
X43091142Y-121209147D02*
X43186380Y-121304385D01*
X43186380Y-121304385D02*
X43281619Y-121494861D01*
X43281619Y-121494861D02*
X43281619Y-122161528D01*
X42329238Y-120161528D02*
X43948285Y-120161528D01*
X43948285Y-120161528D02*
X44138761Y-120066290D01*
X44138761Y-120066290D02*
X44234000Y-119971052D01*
X44234000Y-119971052D02*
X44329238Y-119780576D01*
X44329238Y-119780576D02*
X44329238Y-119399623D01*
X44329238Y-119399623D02*
X44234000Y-119209147D01*
X44234000Y-119209147D02*
X44138761Y-119113909D01*
X44138761Y-119113909D02*
X43948285Y-119018671D01*
X43948285Y-119018671D02*
X42329238Y-119018671D01*
X43281619Y-117399623D02*
X43281619Y-118066290D01*
X44329238Y-118066290D02*
X42329238Y-118066290D01*
X42329238Y-118066290D02*
X42329238Y-117113909D01*
D10*
X41473996Y-137960571D02*
X41426377Y-138032000D01*
X41426377Y-138032000D02*
X41283520Y-138103428D01*
X41283520Y-138103428D02*
X41188282Y-138103428D01*
X41188282Y-138103428D02*
X41045425Y-138032000D01*
X41045425Y-138032000D02*
X40950187Y-137889142D01*
X40950187Y-137889142D02*
X40902568Y-137746285D01*
X40902568Y-137746285D02*
X40854949Y-137460571D01*
X40854949Y-137460571D02*
X40854949Y-137246285D01*
X40854949Y-137246285D02*
X40902568Y-136960571D01*
X40902568Y-136960571D02*
X40950187Y-136817714D01*
X40950187Y-136817714D02*
X41045425Y-136674857D01*
X41045425Y-136674857D02*
X41188282Y-136603428D01*
X41188282Y-136603428D02*
X41283520Y-136603428D01*
X41283520Y-136603428D02*
X41426377Y-136674857D01*
X41426377Y-136674857D02*
X41473996Y-136746285D01*
X41854949Y-138032000D02*
X41997806Y-138103428D01*
X41997806Y-138103428D02*
X42235901Y-138103428D01*
X42235901Y-138103428D02*
X42331139Y-138032000D01*
X42331139Y-138032000D02*
X42378758Y-137960571D01*
X42378758Y-137960571D02*
X42426377Y-137817714D01*
X42426377Y-137817714D02*
X42426377Y-137674857D01*
X42426377Y-137674857D02*
X42378758Y-137532000D01*
X42378758Y-137532000D02*
X42331139Y-137460571D01*
X42331139Y-137460571D02*
X42235901Y-137389142D01*
X42235901Y-137389142D02*
X42045425Y-137317714D01*
X42045425Y-137317714D02*
X41950187Y-137246285D01*
X41950187Y-137246285D02*
X41902568Y-137174857D01*
X41902568Y-137174857D02*
X41854949Y-137032000D01*
X41854949Y-137032000D02*
X41854949Y-136889142D01*
X41854949Y-136889142D02*
X41902568Y-136746285D01*
X41902568Y-136746285D02*
X41950187Y-136674857D01*
X41950187Y-136674857D02*
X42045425Y-136603428D01*
X42045425Y-136603428D02*
X42283520Y-136603428D01*
X42283520Y-136603428D02*
X42426377Y-136674857D01*
D16*
X113929676Y-83513033D02*
X113834438Y-83703509D01*
X113834438Y-83703509D02*
X113834438Y-83989223D01*
X113834438Y-83989223D02*
X113929676Y-84274938D01*
X113929676Y-84274938D02*
X114120152Y-84465414D01*
X114120152Y-84465414D02*
X114310628Y-84560652D01*
X114310628Y-84560652D02*
X114691580Y-84655890D01*
X114691580Y-84655890D02*
X114977295Y-84655890D01*
X114977295Y-84655890D02*
X115358247Y-84560652D01*
X115358247Y-84560652D02*
X115548723Y-84465414D01*
X115548723Y-84465414D02*
X115739200Y-84274938D01*
X115739200Y-84274938D02*
X115834438Y-83989223D01*
X115834438Y-83989223D02*
X115834438Y-83798747D01*
X115834438Y-83798747D02*
X115739200Y-83513033D01*
X115739200Y-83513033D02*
X115643961Y-83417795D01*
X115643961Y-83417795D02*
X114977295Y-83417795D01*
X114977295Y-83417795D02*
X114977295Y-83798747D01*
X115834438Y-82560652D02*
X113834438Y-82560652D01*
X113834438Y-82560652D02*
X115834438Y-81417795D01*
X115834438Y-81417795D02*
X113834438Y-81417795D01*
X115834438Y-80465414D02*
X113834438Y-80465414D01*
X113834438Y-80465414D02*
X113834438Y-79989224D01*
X113834438Y-79989224D02*
X113929676Y-79703509D01*
X113929676Y-79703509D02*
X114120152Y-79513033D01*
X114120152Y-79513033D02*
X114310628Y-79417795D01*
X114310628Y-79417795D02*
X114691580Y-79322557D01*
X114691580Y-79322557D02*
X114977295Y-79322557D01*
X114977295Y-79322557D02*
X115358247Y-79417795D01*
X115358247Y-79417795D02*
X115548723Y-79513033D01*
X115548723Y-79513033D02*
X115739200Y-79703509D01*
X115739200Y-79703509D02*
X115834438Y-79989224D01*
X115834438Y-79989224D02*
X115834438Y-80465414D01*
D10*
X118078758Y-130803428D02*
X117602568Y-130803428D01*
X117602568Y-130803428D02*
X117602568Y-129303428D01*
X118412092Y-130803428D02*
X118412092Y-129303428D01*
X118412092Y-129303428D02*
X118793044Y-129303428D01*
X118793044Y-129303428D02*
X118888282Y-129374857D01*
X118888282Y-129374857D02*
X118935901Y-129446285D01*
X118935901Y-129446285D02*
X118983520Y-129589142D01*
X118983520Y-129589142D02*
X118983520Y-129803428D01*
X118983520Y-129803428D02*
X118935901Y-129946285D01*
X118935901Y-129946285D02*
X118888282Y-130017714D01*
X118888282Y-130017714D02*
X118793044Y-130089142D01*
X118793044Y-130089142D02*
X118412092Y-130089142D01*
X119412092Y-130803428D02*
X119412092Y-129303428D01*
X119412092Y-129303428D02*
X119650187Y-129303428D01*
X119650187Y-129303428D02*
X119793044Y-129374857D01*
X119793044Y-129374857D02*
X119888282Y-129517714D01*
X119888282Y-129517714D02*
X119935901Y-129660571D01*
X119935901Y-129660571D02*
X119983520Y-129946285D01*
X119983520Y-129946285D02*
X119983520Y-130160571D01*
X119983520Y-130160571D02*
X119935901Y-130446285D01*
X119935901Y-130446285D02*
X119888282Y-130589142D01*
X119888282Y-130589142D02*
X119793044Y-130732000D01*
X119793044Y-130732000D02*
X119650187Y-130803428D01*
X119650187Y-130803428D02*
X119412092Y-130803428D01*
X75773996Y-135160571D02*
X75726377Y-135232000D01*
X75726377Y-135232000D02*
X75583520Y-135303428D01*
X75583520Y-135303428D02*
X75488282Y-135303428D01*
X75488282Y-135303428D02*
X75345425Y-135232000D01*
X75345425Y-135232000D02*
X75250187Y-135089142D01*
X75250187Y-135089142D02*
X75202568Y-134946285D01*
X75202568Y-134946285D02*
X75154949Y-134660571D01*
X75154949Y-134660571D02*
X75154949Y-134446285D01*
X75154949Y-134446285D02*
X75202568Y-134160571D01*
X75202568Y-134160571D02*
X75250187Y-134017714D01*
X75250187Y-134017714D02*
X75345425Y-133874857D01*
X75345425Y-133874857D02*
X75488282Y-133803428D01*
X75488282Y-133803428D02*
X75583520Y-133803428D01*
X75583520Y-133803428D02*
X75726377Y-133874857D01*
X75726377Y-133874857D02*
X75773996Y-133946285D01*
X76154949Y-135232000D02*
X76297806Y-135303428D01*
X76297806Y-135303428D02*
X76535901Y-135303428D01*
X76535901Y-135303428D02*
X76631139Y-135232000D01*
X76631139Y-135232000D02*
X76678758Y-135160571D01*
X76678758Y-135160571D02*
X76726377Y-135017714D01*
X76726377Y-135017714D02*
X76726377Y-134874857D01*
X76726377Y-134874857D02*
X76678758Y-134732000D01*
X76678758Y-134732000D02*
X76631139Y-134660571D01*
X76631139Y-134660571D02*
X76535901Y-134589142D01*
X76535901Y-134589142D02*
X76345425Y-134517714D01*
X76345425Y-134517714D02*
X76250187Y-134446285D01*
X76250187Y-134446285D02*
X76202568Y-134374857D01*
X76202568Y-134374857D02*
X76154949Y-134232000D01*
X76154949Y-134232000D02*
X76154949Y-134089142D01*
X76154949Y-134089142D02*
X76202568Y-133946285D01*
X76202568Y-133946285D02*
X76250187Y-133874857D01*
X76250187Y-133874857D02*
X76345425Y-133803428D01*
X76345425Y-133803428D02*
X76583520Y-133803428D01*
X76583520Y-133803428D02*
X76726377Y-133874857D01*
X101954949Y-114532000D02*
X102097806Y-114603428D01*
X102097806Y-114603428D02*
X102335901Y-114603428D01*
X102335901Y-114603428D02*
X102431139Y-114532000D01*
X102431139Y-114532000D02*
X102478758Y-114460571D01*
X102478758Y-114460571D02*
X102526377Y-114317714D01*
X102526377Y-114317714D02*
X102526377Y-114174857D01*
X102526377Y-114174857D02*
X102478758Y-114032000D01*
X102478758Y-114032000D02*
X102431139Y-113960571D01*
X102431139Y-113960571D02*
X102335901Y-113889142D01*
X102335901Y-113889142D02*
X102145425Y-113817714D01*
X102145425Y-113817714D02*
X102050187Y-113746285D01*
X102050187Y-113746285D02*
X102002568Y-113674857D01*
X102002568Y-113674857D02*
X101954949Y-113532000D01*
X101954949Y-113532000D02*
X101954949Y-113389142D01*
X101954949Y-113389142D02*
X102002568Y-113246285D01*
X102002568Y-113246285D02*
X102050187Y-113174857D01*
X102050187Y-113174857D02*
X102145425Y-113103428D01*
X102145425Y-113103428D02*
X102383520Y-113103428D01*
X102383520Y-113103428D02*
X102526377Y-113174857D01*
X102954949Y-114603428D02*
X102954949Y-113103428D01*
X102954949Y-113103428D02*
X103193044Y-113103428D01*
X103193044Y-113103428D02*
X103335901Y-113174857D01*
X103335901Y-113174857D02*
X103431139Y-113317714D01*
X103431139Y-113317714D02*
X103478758Y-113460571D01*
X103478758Y-113460571D02*
X103526377Y-113746285D01*
X103526377Y-113746285D02*
X103526377Y-113960571D01*
X103526377Y-113960571D02*
X103478758Y-114246285D01*
X103478758Y-114246285D02*
X103431139Y-114389142D01*
X103431139Y-114389142D02*
X103335901Y-114532000D01*
X103335901Y-114532000D02*
X103193044Y-114603428D01*
X103193044Y-114603428D02*
X102954949Y-114603428D01*
X103907330Y-114174857D02*
X104383520Y-114174857D01*
X103812092Y-114603428D02*
X104145425Y-113103428D01*
X104145425Y-113103428D02*
X104478758Y-114603428D01*
D13*
X87557518Y-120029238D02*
X86605137Y-120029238D01*
X86605137Y-120029238D02*
X86605137Y-118029238D01*
X88224185Y-120029238D02*
X88224185Y-118029238D01*
X88224185Y-118029238D02*
X88700375Y-118029238D01*
X88700375Y-118029238D02*
X88986090Y-118124476D01*
X88986090Y-118124476D02*
X89176566Y-118314952D01*
X89176566Y-118314952D02*
X89271804Y-118505428D01*
X89271804Y-118505428D02*
X89367042Y-118886380D01*
X89367042Y-118886380D02*
X89367042Y-119172095D01*
X89367042Y-119172095D02*
X89271804Y-119553047D01*
X89271804Y-119553047D02*
X89176566Y-119743523D01*
X89176566Y-119743523D02*
X88986090Y-119934000D01*
X88986090Y-119934000D02*
X88700375Y-120029238D01*
X88700375Y-120029238D02*
X88224185Y-120029238D01*
X90605137Y-118029238D02*
X90986090Y-118029238D01*
X90986090Y-118029238D02*
X91176566Y-118124476D01*
X91176566Y-118124476D02*
X91367042Y-118314952D01*
X91367042Y-118314952D02*
X91462280Y-118695904D01*
X91462280Y-118695904D02*
X91462280Y-119362571D01*
X91462280Y-119362571D02*
X91367042Y-119743523D01*
X91367042Y-119743523D02*
X91176566Y-119934000D01*
X91176566Y-119934000D02*
X90986090Y-120029238D01*
X90986090Y-120029238D02*
X90605137Y-120029238D01*
X90605137Y-120029238D02*
X90414661Y-119934000D01*
X90414661Y-119934000D02*
X90224185Y-119743523D01*
X90224185Y-119743523D02*
X90128947Y-119362571D01*
X90128947Y-119362571D02*
X90128947Y-118695904D01*
X90128947Y-118695904D02*
X90224185Y-118314952D01*
X90224185Y-118314952D02*
X90414661Y-118124476D01*
X90414661Y-118124476D02*
X90605137Y-118029238D01*
X97271804Y-69141843D02*
X97557518Y-69237081D01*
X97557518Y-69237081D02*
X97652756Y-69332319D01*
X97652756Y-69332319D02*
X97747994Y-69522795D01*
X97747994Y-69522795D02*
X97747994Y-69808509D01*
X97747994Y-69808509D02*
X97652756Y-69998985D01*
X97652756Y-69998985D02*
X97557518Y-70094224D01*
X97557518Y-70094224D02*
X97367042Y-70189462D01*
X97367042Y-70189462D02*
X96605137Y-70189462D01*
X96605137Y-70189462D02*
X96605137Y-68189462D01*
X96605137Y-68189462D02*
X97271804Y-68189462D01*
X97271804Y-68189462D02*
X97462280Y-68284700D01*
X97462280Y-68284700D02*
X97557518Y-68379938D01*
X97557518Y-68379938D02*
X97652756Y-68570414D01*
X97652756Y-68570414D02*
X97652756Y-68760890D01*
X97652756Y-68760890D02*
X97557518Y-68951366D01*
X97557518Y-68951366D02*
X97462280Y-69046604D01*
X97462280Y-69046604D02*
X97271804Y-69141843D01*
X97271804Y-69141843D02*
X96605137Y-69141843D01*
X98509899Y-69618033D02*
X99462280Y-69618033D01*
X98319423Y-70189462D02*
X98986089Y-68189462D01*
X98986089Y-68189462D02*
X99652756Y-70189462D01*
X100033709Y-68189462D02*
X101176566Y-68189462D01*
X100605137Y-70189462D02*
X100605137Y-68189462D01*
X101557519Y-68189462D02*
X102700376Y-68189462D01*
X102128947Y-70189462D02*
X102128947Y-68189462D01*
X103367043Y-69141843D02*
X104033710Y-69141843D01*
X104319424Y-70189462D02*
X103367043Y-70189462D01*
X103367043Y-70189462D02*
X103367043Y-68189462D01*
X103367043Y-68189462D02*
X104319424Y-68189462D01*
X106319424Y-70189462D02*
X105652757Y-69237081D01*
X105176567Y-70189462D02*
X105176567Y-68189462D01*
X105176567Y-68189462D02*
X105938472Y-68189462D01*
X105938472Y-68189462D02*
X106128948Y-68284700D01*
X106128948Y-68284700D02*
X106224186Y-68379938D01*
X106224186Y-68379938D02*
X106319424Y-68570414D01*
X106319424Y-68570414D02*
X106319424Y-68856128D01*
X106319424Y-68856128D02*
X106224186Y-69046604D01*
X106224186Y-69046604D02*
X106128948Y-69141843D01*
X106128948Y-69141843D02*
X105938472Y-69237081D01*
X105938472Y-69237081D02*
X105176567Y-69237081D01*
X107557519Y-69237081D02*
X107557519Y-70189462D01*
X106890853Y-68189462D02*
X107557519Y-69237081D01*
X107557519Y-69237081D02*
X108224186Y-68189462D01*
X97747994Y-73409350D02*
X97081327Y-72456969D01*
X96605137Y-73409350D02*
X96605137Y-71409350D01*
X96605137Y-71409350D02*
X97367042Y-71409350D01*
X97367042Y-71409350D02*
X97557518Y-71504588D01*
X97557518Y-71504588D02*
X97652756Y-71599826D01*
X97652756Y-71599826D02*
X97747994Y-71790302D01*
X97747994Y-71790302D02*
X97747994Y-72076016D01*
X97747994Y-72076016D02*
X97652756Y-72266492D01*
X97652756Y-72266492D02*
X97557518Y-72361731D01*
X97557518Y-72361731D02*
X97367042Y-72456969D01*
X97367042Y-72456969D02*
X96605137Y-72456969D01*
X98605137Y-72361731D02*
X99271804Y-72361731D01*
X99557518Y-73409350D02*
X98605137Y-73409350D01*
X98605137Y-73409350D02*
X98605137Y-71409350D01*
X98605137Y-71409350D02*
X99557518Y-71409350D01*
X100128947Y-71409350D02*
X100795613Y-73409350D01*
X100795613Y-73409350D02*
X101462280Y-71409350D01*
X102128947Y-72361731D02*
X102795614Y-72361731D01*
X103081328Y-73409350D02*
X102128947Y-73409350D01*
X102128947Y-73409350D02*
X102128947Y-71409350D01*
X102128947Y-71409350D02*
X103081328Y-71409350D01*
X105081328Y-73409350D02*
X104414661Y-72456969D01*
X103938471Y-73409350D02*
X103938471Y-71409350D01*
X103938471Y-71409350D02*
X104700376Y-71409350D01*
X104700376Y-71409350D02*
X104890852Y-71504588D01*
X104890852Y-71504588D02*
X104986090Y-71599826D01*
X104986090Y-71599826D02*
X105081328Y-71790302D01*
X105081328Y-71790302D02*
X105081328Y-72076016D01*
X105081328Y-72076016D02*
X104986090Y-72266492D01*
X104986090Y-72266492D02*
X104890852Y-72361731D01*
X104890852Y-72361731D02*
X104700376Y-72456969D01*
X104700376Y-72456969D02*
X103938471Y-72456969D01*
X105843233Y-73314112D02*
X106128947Y-73409350D01*
X106128947Y-73409350D02*
X106605138Y-73409350D01*
X106605138Y-73409350D02*
X106795614Y-73314112D01*
X106795614Y-73314112D02*
X106890852Y-73218873D01*
X106890852Y-73218873D02*
X106986090Y-73028397D01*
X106986090Y-73028397D02*
X106986090Y-72837921D01*
X106986090Y-72837921D02*
X106890852Y-72647445D01*
X106890852Y-72647445D02*
X106795614Y-72552207D01*
X106795614Y-72552207D02*
X106605138Y-72456969D01*
X106605138Y-72456969D02*
X106224185Y-72361731D01*
X106224185Y-72361731D02*
X106033709Y-72266492D01*
X106033709Y-72266492D02*
X105938471Y-72171254D01*
X105938471Y-72171254D02*
X105843233Y-71980778D01*
X105843233Y-71980778D02*
X105843233Y-71790302D01*
X105843233Y-71790302D02*
X105938471Y-71599826D01*
X105938471Y-71599826D02*
X106033709Y-71504588D01*
X106033709Y-71504588D02*
X106224185Y-71409350D01*
X106224185Y-71409350D02*
X106700376Y-71409350D01*
X106700376Y-71409350D02*
X106986090Y-71504588D01*
X107843233Y-72361731D02*
X108509900Y-72361731D01*
X108795614Y-73409350D02*
X107843233Y-73409350D01*
X107843233Y-73409350D02*
X107843233Y-71409350D01*
X107843233Y-71409350D02*
X108795614Y-71409350D01*
X109652757Y-73409350D02*
X109652757Y-71409350D01*
X109652757Y-71409350D02*
X110128947Y-71409350D01*
X110128947Y-71409350D02*
X110414662Y-71504588D01*
X110414662Y-71504588D02*
X110605138Y-71695064D01*
X110605138Y-71695064D02*
X110700376Y-71885540D01*
X110700376Y-71885540D02*
X110795614Y-72266492D01*
X110795614Y-72266492D02*
X110795614Y-72552207D01*
X110795614Y-72552207D02*
X110700376Y-72933159D01*
X110700376Y-72933159D02*
X110605138Y-73123635D01*
X110605138Y-73123635D02*
X110414662Y-73314112D01*
X110414662Y-73314112D02*
X110128947Y-73409350D01*
X110128947Y-73409350D02*
X109652757Y-73409350D01*
X96605137Y-76629238D02*
X96605137Y-74629238D01*
X97557518Y-76629238D02*
X97557518Y-74629238D01*
X97557518Y-74629238D02*
X98700375Y-76629238D01*
X98700375Y-76629238D02*
X98700375Y-74629238D01*
X99652756Y-76629238D02*
X99652756Y-74629238D01*
X99652756Y-74629238D02*
X100128946Y-74629238D01*
X100128946Y-74629238D02*
X100414661Y-74724476D01*
X100414661Y-74724476D02*
X100605137Y-74914952D01*
X100605137Y-74914952D02*
X100700375Y-75105428D01*
X100700375Y-75105428D02*
X100795613Y-75486380D01*
X100795613Y-75486380D02*
X100795613Y-75772095D01*
X100795613Y-75772095D02*
X100700375Y-76153047D01*
X100700375Y-76153047D02*
X100605137Y-76343523D01*
X100605137Y-76343523D02*
X100414661Y-76534000D01*
X100414661Y-76534000D02*
X100128946Y-76629238D01*
X100128946Y-76629238D02*
X99652756Y-76629238D01*
X101652756Y-76629238D02*
X101652756Y-74629238D01*
X103747994Y-76438761D02*
X103652756Y-76534000D01*
X103652756Y-76534000D02*
X103367042Y-76629238D01*
X103367042Y-76629238D02*
X103176566Y-76629238D01*
X103176566Y-76629238D02*
X102890851Y-76534000D01*
X102890851Y-76534000D02*
X102700375Y-76343523D01*
X102700375Y-76343523D02*
X102605137Y-76153047D01*
X102605137Y-76153047D02*
X102509899Y-75772095D01*
X102509899Y-75772095D02*
X102509899Y-75486380D01*
X102509899Y-75486380D02*
X102605137Y-75105428D01*
X102605137Y-75105428D02*
X102700375Y-74914952D01*
X102700375Y-74914952D02*
X102890851Y-74724476D01*
X102890851Y-74724476D02*
X103176566Y-74629238D01*
X103176566Y-74629238D02*
X103367042Y-74629238D01*
X103367042Y-74629238D02*
X103652756Y-74724476D01*
X103652756Y-74724476D02*
X103747994Y-74819714D01*
X104509899Y-76057809D02*
X105462280Y-76057809D01*
X104319423Y-76629238D02*
X104986089Y-74629238D01*
X104986089Y-74629238D02*
X105652756Y-76629238D01*
X106033709Y-74629238D02*
X107176566Y-74629238D01*
X106605137Y-76629238D02*
X106605137Y-74629238D01*
X108224185Y-74629238D02*
X108605138Y-74629238D01*
X108605138Y-74629238D02*
X108795614Y-74724476D01*
X108795614Y-74724476D02*
X108986090Y-74914952D01*
X108986090Y-74914952D02*
X109081328Y-75295904D01*
X109081328Y-75295904D02*
X109081328Y-75962571D01*
X109081328Y-75962571D02*
X108986090Y-76343523D01*
X108986090Y-76343523D02*
X108795614Y-76534000D01*
X108795614Y-76534000D02*
X108605138Y-76629238D01*
X108605138Y-76629238D02*
X108224185Y-76629238D01*
X108224185Y-76629238D02*
X108033709Y-76534000D01*
X108033709Y-76534000D02*
X107843233Y-76343523D01*
X107843233Y-76343523D02*
X107747995Y-75962571D01*
X107747995Y-75962571D02*
X107747995Y-75295904D01*
X107747995Y-75295904D02*
X107843233Y-74914952D01*
X107843233Y-74914952D02*
X108033709Y-74724476D01*
X108033709Y-74724476D02*
X108224185Y-74629238D01*
X111081328Y-76629238D02*
X110414661Y-75676857D01*
X109938471Y-76629238D02*
X109938471Y-74629238D01*
X109938471Y-74629238D02*
X110700376Y-74629238D01*
X110700376Y-74629238D02*
X110890852Y-74724476D01*
X110890852Y-74724476D02*
X110986090Y-74819714D01*
X110986090Y-74819714D02*
X111081328Y-75010190D01*
X111081328Y-75010190D02*
X111081328Y-75295904D01*
X111081328Y-75295904D02*
X110986090Y-75486380D01*
X110986090Y-75486380D02*
X110890852Y-75581619D01*
X110890852Y-75581619D02*
X110700376Y-75676857D01*
X110700376Y-75676857D02*
X109938471Y-75676857D01*
D17*
X126604619Y-85314285D02*
X126604619Y-84742857D01*
X127604619Y-85028571D02*
X126604619Y-85028571D01*
X126604619Y-84219047D02*
X126604619Y-84028571D01*
X126604619Y-84028571D02*
X126652238Y-83933333D01*
X126652238Y-83933333D02*
X126747476Y-83838095D01*
X126747476Y-83838095D02*
X126937952Y-83790476D01*
X126937952Y-83790476D02*
X127271285Y-83790476D01*
X127271285Y-83790476D02*
X127461761Y-83838095D01*
X127461761Y-83838095D02*
X127557000Y-83933333D01*
X127557000Y-83933333D02*
X127604619Y-84028571D01*
X127604619Y-84028571D02*
X127604619Y-84219047D01*
X127604619Y-84219047D02*
X127557000Y-84314285D01*
X127557000Y-84314285D02*
X127461761Y-84409523D01*
X127461761Y-84409523D02*
X127271285Y-84457142D01*
X127271285Y-84457142D02*
X126937952Y-84457142D01*
X126937952Y-84457142D02*
X126747476Y-84409523D01*
X126747476Y-84409523D02*
X126652238Y-84314285D01*
X126652238Y-84314285D02*
X126604619Y-84219047D01*
X126652238Y-82838095D02*
X126604619Y-82933333D01*
X126604619Y-82933333D02*
X126604619Y-83076190D01*
X126604619Y-83076190D02*
X126652238Y-83219047D01*
X126652238Y-83219047D02*
X126747476Y-83314285D01*
X126747476Y-83314285D02*
X126842714Y-83361904D01*
X126842714Y-83361904D02*
X127033190Y-83409523D01*
X127033190Y-83409523D02*
X127176047Y-83409523D01*
X127176047Y-83409523D02*
X127366523Y-83361904D01*
X127366523Y-83361904D02*
X127461761Y-83314285D01*
X127461761Y-83314285D02*
X127557000Y-83219047D01*
X127557000Y-83219047D02*
X127604619Y-83076190D01*
X127604619Y-83076190D02*
X127604619Y-82980952D01*
X127604619Y-82980952D02*
X127557000Y-82838095D01*
X127557000Y-82838095D02*
X127509380Y-82790476D01*
X127509380Y-82790476D02*
X127176047Y-82790476D01*
X127176047Y-82790476D02*
X127176047Y-82980952D01*
X126652238Y-81838095D02*
X126604619Y-81933333D01*
X126604619Y-81933333D02*
X126604619Y-82076190D01*
X126604619Y-82076190D02*
X126652238Y-82219047D01*
X126652238Y-82219047D02*
X126747476Y-82314285D01*
X126747476Y-82314285D02*
X126842714Y-82361904D01*
X126842714Y-82361904D02*
X127033190Y-82409523D01*
X127033190Y-82409523D02*
X127176047Y-82409523D01*
X127176047Y-82409523D02*
X127366523Y-82361904D01*
X127366523Y-82361904D02*
X127461761Y-82314285D01*
X127461761Y-82314285D02*
X127557000Y-82219047D01*
X127557000Y-82219047D02*
X127604619Y-82076190D01*
X127604619Y-82076190D02*
X127604619Y-81980952D01*
X127604619Y-81980952D02*
X127557000Y-81838095D01*
X127557000Y-81838095D02*
X127509380Y-81790476D01*
X127509380Y-81790476D02*
X127176047Y-81790476D01*
X127176047Y-81790476D02*
X127176047Y-81980952D01*
X127604619Y-80885714D02*
X127604619Y-81361904D01*
X127604619Y-81361904D02*
X126604619Y-81361904D01*
X127080809Y-80552380D02*
X127080809Y-80219047D01*
X127604619Y-80076190D02*
X127604619Y-80552380D01*
X127604619Y-80552380D02*
X126604619Y-80552380D01*
X126604619Y-80552380D02*
X126604619Y-80076190D01*
X127699857Y-79885714D02*
X127699857Y-79123809D01*
X127557000Y-78933332D02*
X127604619Y-78790475D01*
X127604619Y-78790475D02*
X127604619Y-78552380D01*
X127604619Y-78552380D02*
X127557000Y-78457142D01*
X127557000Y-78457142D02*
X127509380Y-78409523D01*
X127509380Y-78409523D02*
X127414142Y-78361904D01*
X127414142Y-78361904D02*
X127318904Y-78361904D01*
X127318904Y-78361904D02*
X127223666Y-78409523D01*
X127223666Y-78409523D02*
X127176047Y-78457142D01*
X127176047Y-78457142D02*
X127128428Y-78552380D01*
X127128428Y-78552380D02*
X127080809Y-78742856D01*
X127080809Y-78742856D02*
X127033190Y-78838094D01*
X127033190Y-78838094D02*
X126985571Y-78885713D01*
X126985571Y-78885713D02*
X126890333Y-78933332D01*
X126890333Y-78933332D02*
X126795095Y-78933332D01*
X126795095Y-78933332D02*
X126699857Y-78885713D01*
X126699857Y-78885713D02*
X126652238Y-78838094D01*
X126652238Y-78838094D02*
X126604619Y-78742856D01*
X126604619Y-78742856D02*
X126604619Y-78504761D01*
X126604619Y-78504761D02*
X126652238Y-78361904D01*
X126604619Y-78028570D02*
X127604619Y-77790475D01*
X127604619Y-77790475D02*
X126890333Y-77599999D01*
X126890333Y-77599999D02*
X127604619Y-77409523D01*
X127604619Y-77409523D02*
X126604619Y-77171428D01*
X127604619Y-76790475D02*
X126604619Y-76790475D01*
X126604619Y-76457142D02*
X126604619Y-75885714D01*
X127604619Y-76171428D02*
X126604619Y-76171428D01*
X127509380Y-74980952D02*
X127557000Y-75028571D01*
X127557000Y-75028571D02*
X127604619Y-75171428D01*
X127604619Y-75171428D02*
X127604619Y-75266666D01*
X127604619Y-75266666D02*
X127557000Y-75409523D01*
X127557000Y-75409523D02*
X127461761Y-75504761D01*
X127461761Y-75504761D02*
X127366523Y-75552380D01*
X127366523Y-75552380D02*
X127176047Y-75599999D01*
X127176047Y-75599999D02*
X127033190Y-75599999D01*
X127033190Y-75599999D02*
X126842714Y-75552380D01*
X126842714Y-75552380D02*
X126747476Y-75504761D01*
X126747476Y-75504761D02*
X126652238Y-75409523D01*
X126652238Y-75409523D02*
X126604619Y-75266666D01*
X126604619Y-75266666D02*
X126604619Y-75171428D01*
X126604619Y-75171428D02*
X126652238Y-75028571D01*
X126652238Y-75028571D02*
X126699857Y-74980952D01*
X127604619Y-74552380D02*
X126604619Y-74552380D01*
X127080809Y-74552380D02*
X127080809Y-73980952D01*
X127604619Y-73980952D02*
X126604619Y-73980952D01*
X127604619Y-72980952D02*
X127604619Y-73552380D01*
X127604619Y-73266666D02*
X126604619Y-73266666D01*
X126604619Y-73266666D02*
X126747476Y-73361904D01*
X126747476Y-73361904D02*
X126842714Y-73457142D01*
X126842714Y-73457142D02*
X126890333Y-73552380D01*
X124953619Y-82099999D02*
X125191714Y-82099999D01*
X125096476Y-82338094D02*
X125191714Y-82099999D01*
X125191714Y-82099999D02*
X125096476Y-81861904D01*
X125382190Y-82242856D02*
X125191714Y-82099999D01*
X125191714Y-82099999D02*
X125382190Y-81957142D01*
X124953619Y-82099999D02*
X125191714Y-82099999D01*
X125096476Y-82338094D02*
X125191714Y-82099999D01*
X125191714Y-82099999D02*
X125096476Y-81861904D01*
X125382190Y-82242856D02*
X125191714Y-82099999D01*
X125191714Y-82099999D02*
X125382190Y-81957142D01*
D18*
X54786318Y-87830475D02*
X54181556Y-88253809D01*
X54786318Y-88556190D02*
X53516318Y-88556190D01*
X53516318Y-88556190D02*
X53516318Y-88072380D01*
X53516318Y-88072380D02*
X53576794Y-87951428D01*
X53576794Y-87951428D02*
X53637270Y-87890951D01*
X53637270Y-87890951D02*
X53758222Y-87830475D01*
X53758222Y-87830475D02*
X53939651Y-87830475D01*
X53939651Y-87830475D02*
X54060603Y-87890951D01*
X54060603Y-87890951D02*
X54121080Y-87951428D01*
X54121080Y-87951428D02*
X54181556Y-88072380D01*
X54181556Y-88072380D02*
X54181556Y-88556190D01*
X53516318Y-87467618D02*
X53516318Y-86741904D01*
X54786318Y-87104761D02*
X53516318Y-87104761D01*
X54665365Y-85592856D02*
X54725842Y-85653332D01*
X54725842Y-85653332D02*
X54786318Y-85834761D01*
X54786318Y-85834761D02*
X54786318Y-85955713D01*
X54786318Y-85955713D02*
X54725842Y-86137142D01*
X54725842Y-86137142D02*
X54604889Y-86258094D01*
X54604889Y-86258094D02*
X54483937Y-86318571D01*
X54483937Y-86318571D02*
X54242032Y-86379047D01*
X54242032Y-86379047D02*
X54060603Y-86379047D01*
X54060603Y-86379047D02*
X53818699Y-86318571D01*
X53818699Y-86318571D02*
X53697746Y-86258094D01*
X53697746Y-86258094D02*
X53576794Y-86137142D01*
X53576794Y-86137142D02*
X53516318Y-85955713D01*
X53516318Y-85955713D02*
X53516318Y-85834761D01*
X53516318Y-85834761D02*
X53576794Y-85653332D01*
X53576794Y-85653332D02*
X53637270Y-85592856D01*
X54786318Y-84383332D02*
X54786318Y-85109047D01*
X54786318Y-84746190D02*
X53516318Y-84746190D01*
X53516318Y-84746190D02*
X53697746Y-84867142D01*
X53697746Y-84867142D02*
X53818699Y-84988094D01*
X53818699Y-84988094D02*
X53879175Y-85109047D01*
D17*
X115833333Y-123045180D02*
X116166666Y-123521371D01*
X116404761Y-123045180D02*
X116404761Y-124045180D01*
X116404761Y-124045180D02*
X116023809Y-124045180D01*
X116023809Y-124045180D02*
X115928571Y-123997561D01*
X115928571Y-123997561D02*
X115880952Y-123949942D01*
X115880952Y-123949942D02*
X115833333Y-123854704D01*
X115833333Y-123854704D02*
X115833333Y-123711847D01*
X115833333Y-123711847D02*
X115880952Y-123616609D01*
X115880952Y-123616609D02*
X115928571Y-123568990D01*
X115928571Y-123568990D02*
X116023809Y-123521371D01*
X116023809Y-123521371D02*
X116404761Y-123521371D01*
X115071428Y-123568990D02*
X115404761Y-123568990D01*
X115404761Y-123045180D02*
X115404761Y-124045180D01*
X115404761Y-124045180D02*
X114928571Y-124045180D01*
X114547618Y-123045180D02*
X114547618Y-124045180D01*
X114071428Y-123045180D02*
X114071428Y-124045180D01*
X114071428Y-124045180D02*
X113833333Y-124045180D01*
X113833333Y-124045180D02*
X113690476Y-123997561D01*
X113690476Y-123997561D02*
X113595238Y-123902323D01*
X113595238Y-123902323D02*
X113547619Y-123807085D01*
X113547619Y-123807085D02*
X113500000Y-123616609D01*
X113500000Y-123616609D02*
X113500000Y-123473752D01*
X113500000Y-123473752D02*
X113547619Y-123283276D01*
X113547619Y-123283276D02*
X113595238Y-123188038D01*
X113595238Y-123188038D02*
X113690476Y-123092800D01*
X113690476Y-123092800D02*
X113833333Y-123045180D01*
X113833333Y-123045180D02*
X114071428Y-123045180D01*
X112547619Y-123045180D02*
X113119047Y-123045180D01*
X112833333Y-123045180D02*
X112833333Y-124045180D01*
X112833333Y-124045180D02*
X112928571Y-123902323D01*
X112928571Y-123902323D02*
X113023809Y-123807085D01*
X113023809Y-123807085D02*
X113119047Y-123759466D01*
D18*
X92274318Y-117215714D02*
X92274318Y-117820476D01*
X92274318Y-117820476D02*
X91004318Y-117820476D01*
X92274318Y-116792381D02*
X91004318Y-116792381D01*
X91004318Y-116792381D02*
X91004318Y-116490000D01*
X91004318Y-116490000D02*
X91064794Y-116308571D01*
X91064794Y-116308571D02*
X91185746Y-116187619D01*
X91185746Y-116187619D02*
X91306699Y-116127142D01*
X91306699Y-116127142D02*
X91548603Y-116066666D01*
X91548603Y-116066666D02*
X91730032Y-116066666D01*
X91730032Y-116066666D02*
X91971937Y-116127142D01*
X91971937Y-116127142D02*
X92092889Y-116187619D01*
X92092889Y-116187619D02*
X92213842Y-116308571D01*
X92213842Y-116308571D02*
X92274318Y-116490000D01*
X92274318Y-116490000D02*
X92274318Y-116792381D01*
X91004318Y-115280476D02*
X91004318Y-115038571D01*
X91004318Y-115038571D02*
X91064794Y-114917619D01*
X91064794Y-114917619D02*
X91185746Y-114796666D01*
X91185746Y-114796666D02*
X91427651Y-114736190D01*
X91427651Y-114736190D02*
X91850984Y-114736190D01*
X91850984Y-114736190D02*
X92092889Y-114796666D01*
X92092889Y-114796666D02*
X92213842Y-114917619D01*
X92213842Y-114917619D02*
X92274318Y-115038571D01*
X92274318Y-115038571D02*
X92274318Y-115280476D01*
X92274318Y-115280476D02*
X92213842Y-115401428D01*
X92213842Y-115401428D02*
X92092889Y-115522381D01*
X92092889Y-115522381D02*
X91850984Y-115582857D01*
X91850984Y-115582857D02*
X91427651Y-115582857D01*
X91427651Y-115582857D02*
X91185746Y-115522381D01*
X91185746Y-115522381D02*
X91064794Y-115401428D01*
X91064794Y-115401428D02*
X91004318Y-115280476D01*
X92274318Y-113466190D02*
X91669556Y-113889524D01*
X92274318Y-114191905D02*
X91004318Y-114191905D01*
X91004318Y-114191905D02*
X91004318Y-113708095D01*
X91004318Y-113708095D02*
X91064794Y-113587143D01*
X91064794Y-113587143D02*
X91125270Y-113526666D01*
X91125270Y-113526666D02*
X91246222Y-113466190D01*
X91246222Y-113466190D02*
X91427651Y-113466190D01*
X91427651Y-113466190D02*
X91548603Y-113526666D01*
X91548603Y-113526666D02*
X91609080Y-113587143D01*
X91609080Y-113587143D02*
X91669556Y-113708095D01*
X91669556Y-113708095D02*
X91669556Y-114191905D01*
X92213842Y-112438095D02*
X92274318Y-112559047D01*
X92274318Y-112559047D02*
X92274318Y-112800952D01*
X92274318Y-112800952D02*
X92213842Y-112921905D01*
X92213842Y-112921905D02*
X92092889Y-112982381D01*
X92092889Y-112982381D02*
X91609080Y-112982381D01*
X91609080Y-112982381D02*
X91488127Y-112921905D01*
X91488127Y-112921905D02*
X91427651Y-112800952D01*
X91427651Y-112800952D02*
X91427651Y-112559047D01*
X91427651Y-112559047D02*
X91488127Y-112438095D01*
X91488127Y-112438095D02*
X91609080Y-112377619D01*
X91609080Y-112377619D02*
X91730032Y-112377619D01*
X91730032Y-112377619D02*
X91850984Y-112982381D01*
X91427651Y-111289048D02*
X92455746Y-111289048D01*
X92455746Y-111289048D02*
X92576699Y-111349524D01*
X92576699Y-111349524D02*
X92637175Y-111410000D01*
X92637175Y-111410000D02*
X92697651Y-111530953D01*
X92697651Y-111530953D02*
X92697651Y-111712381D01*
X92697651Y-111712381D02*
X92637175Y-111833334D01*
X92213842Y-111289048D02*
X92274318Y-111410000D01*
X92274318Y-111410000D02*
X92274318Y-111651905D01*
X92274318Y-111651905D02*
X92213842Y-111772857D01*
X92213842Y-111772857D02*
X92153365Y-111833334D01*
X92153365Y-111833334D02*
X92032413Y-111893810D01*
X92032413Y-111893810D02*
X91669556Y-111893810D01*
X91669556Y-111893810D02*
X91548603Y-111833334D01*
X91548603Y-111833334D02*
X91488127Y-111772857D01*
X91488127Y-111772857D02*
X91427651Y-111651905D01*
X91427651Y-111651905D02*
X91427651Y-111410000D01*
X91427651Y-111410000D02*
X91488127Y-111289048D01*
X92274318Y-110019047D02*
X92274318Y-110744762D01*
X92274318Y-110381905D02*
X91004318Y-110381905D01*
X91004318Y-110381905D02*
X91185746Y-110502857D01*
X91185746Y-110502857D02*
X91306699Y-110623809D01*
X91306699Y-110623809D02*
X91367175Y-110744762D01*
X56842381Y-67953365D02*
X56781905Y-68013842D01*
X56781905Y-68013842D02*
X56600476Y-68074318D01*
X56600476Y-68074318D02*
X56479524Y-68074318D01*
X56479524Y-68074318D02*
X56298095Y-68013842D01*
X56298095Y-68013842D02*
X56177143Y-67892889D01*
X56177143Y-67892889D02*
X56116666Y-67771937D01*
X56116666Y-67771937D02*
X56056190Y-67530032D01*
X56056190Y-67530032D02*
X56056190Y-67348603D01*
X56056190Y-67348603D02*
X56116666Y-67106699D01*
X56116666Y-67106699D02*
X56177143Y-66985746D01*
X56177143Y-66985746D02*
X56298095Y-66864794D01*
X56298095Y-66864794D02*
X56479524Y-66804318D01*
X56479524Y-66804318D02*
X56600476Y-66804318D01*
X56600476Y-66804318D02*
X56781905Y-66864794D01*
X56781905Y-66864794D02*
X56842381Y-66925270D01*
X57568095Y-68074318D02*
X57447143Y-68013842D01*
X57447143Y-68013842D02*
X57386666Y-67953365D01*
X57386666Y-67953365D02*
X57326190Y-67832413D01*
X57326190Y-67832413D02*
X57326190Y-67469556D01*
X57326190Y-67469556D02*
X57386666Y-67348603D01*
X57386666Y-67348603D02*
X57447143Y-67288127D01*
X57447143Y-67288127D02*
X57568095Y-67227651D01*
X57568095Y-67227651D02*
X57749524Y-67227651D01*
X57749524Y-67227651D02*
X57870476Y-67288127D01*
X57870476Y-67288127D02*
X57930952Y-67348603D01*
X57930952Y-67348603D02*
X57991428Y-67469556D01*
X57991428Y-67469556D02*
X57991428Y-67832413D01*
X57991428Y-67832413D02*
X57930952Y-67953365D01*
X57930952Y-67953365D02*
X57870476Y-68013842D01*
X57870476Y-68013842D02*
X57749524Y-68074318D01*
X57749524Y-68074318D02*
X57568095Y-68074318D01*
X58535714Y-68074318D02*
X58535714Y-67227651D01*
X58535714Y-66804318D02*
X58475238Y-66864794D01*
X58475238Y-66864794D02*
X58535714Y-66925270D01*
X58535714Y-66925270D02*
X58596191Y-66864794D01*
X58596191Y-66864794D02*
X58535714Y-66804318D01*
X58535714Y-66804318D02*
X58535714Y-66925270D01*
X59140476Y-67227651D02*
X59140476Y-68074318D01*
X59140476Y-67348603D02*
X59200953Y-67288127D01*
X59200953Y-67288127D02*
X59321905Y-67227651D01*
X59321905Y-67227651D02*
X59503334Y-67227651D01*
X59503334Y-67227651D02*
X59624286Y-67288127D01*
X59624286Y-67288127D02*
X59684762Y-67409080D01*
X59684762Y-67409080D02*
X59684762Y-68074318D01*
X61015239Y-67953365D02*
X60954763Y-68013842D01*
X60954763Y-68013842D02*
X60773334Y-68074318D01*
X60773334Y-68074318D02*
X60652382Y-68074318D01*
X60652382Y-68074318D02*
X60470953Y-68013842D01*
X60470953Y-68013842D02*
X60350001Y-67892889D01*
X60350001Y-67892889D02*
X60289524Y-67771937D01*
X60289524Y-67771937D02*
X60229048Y-67530032D01*
X60229048Y-67530032D02*
X60229048Y-67348603D01*
X60229048Y-67348603D02*
X60289524Y-67106699D01*
X60289524Y-67106699D02*
X60350001Y-66985746D01*
X60350001Y-66985746D02*
X60470953Y-66864794D01*
X60470953Y-66864794D02*
X60652382Y-66804318D01*
X60652382Y-66804318D02*
X60773334Y-66804318D01*
X60773334Y-66804318D02*
X60954763Y-66864794D01*
X60954763Y-66864794D02*
X61015239Y-66925270D01*
X62043334Y-68013842D02*
X61922382Y-68074318D01*
X61922382Y-68074318D02*
X61680477Y-68074318D01*
X61680477Y-68074318D02*
X61559524Y-68013842D01*
X61559524Y-68013842D02*
X61499048Y-67892889D01*
X61499048Y-67892889D02*
X61499048Y-67409080D01*
X61499048Y-67409080D02*
X61559524Y-67288127D01*
X61559524Y-67288127D02*
X61680477Y-67227651D01*
X61680477Y-67227651D02*
X61922382Y-67227651D01*
X61922382Y-67227651D02*
X62043334Y-67288127D01*
X62043334Y-67288127D02*
X62103810Y-67409080D01*
X62103810Y-67409080D02*
X62103810Y-67530032D01*
X62103810Y-67530032D02*
X61499048Y-67650984D01*
X62829524Y-68074318D02*
X62708572Y-68013842D01*
X62708572Y-68013842D02*
X62648095Y-67892889D01*
X62648095Y-67892889D02*
X62648095Y-66804318D01*
X63494762Y-68074318D02*
X63373810Y-68013842D01*
X63373810Y-68013842D02*
X63313333Y-67892889D01*
X63313333Y-67892889D02*
X63313333Y-66804318D01*
X64643810Y-68074318D02*
X63918095Y-68074318D01*
X64280952Y-68074318D02*
X64280952Y-66804318D01*
X64280952Y-66804318D02*
X64160000Y-66985746D01*
X64160000Y-66985746D02*
X64039048Y-67106699D01*
X64039048Y-67106699D02*
X63918095Y-67167175D01*
X66863332Y-103804318D02*
X67649523Y-103804318D01*
X67649523Y-103804318D02*
X67226189Y-104288127D01*
X67226189Y-104288127D02*
X67407618Y-104288127D01*
X67407618Y-104288127D02*
X67528570Y-104348603D01*
X67528570Y-104348603D02*
X67589046Y-104409080D01*
X67589046Y-104409080D02*
X67649523Y-104530032D01*
X67649523Y-104530032D02*
X67649523Y-104832413D01*
X67649523Y-104832413D02*
X67589046Y-104953365D01*
X67589046Y-104953365D02*
X67528570Y-105013842D01*
X67528570Y-105013842D02*
X67407618Y-105074318D01*
X67407618Y-105074318D02*
X67044761Y-105074318D01*
X67044761Y-105074318D02*
X66923808Y-105013842D01*
X66923808Y-105013842D02*
X66863332Y-104953365D01*
X68133332Y-103925270D02*
X68193808Y-103864794D01*
X68193808Y-103864794D02*
X68314761Y-103804318D01*
X68314761Y-103804318D02*
X68617142Y-103804318D01*
X68617142Y-103804318D02*
X68738094Y-103864794D01*
X68738094Y-103864794D02*
X68798570Y-103925270D01*
X68798570Y-103925270D02*
X68859047Y-104046222D01*
X68859047Y-104046222D02*
X68859047Y-104167175D01*
X68859047Y-104167175D02*
X68798570Y-104348603D01*
X68798570Y-104348603D02*
X68072856Y-105074318D01*
X68072856Y-105074318D02*
X68859047Y-105074318D01*
X69584761Y-104348603D02*
X69463809Y-104288127D01*
X69463809Y-104288127D02*
X69403332Y-104227651D01*
X69403332Y-104227651D02*
X69342856Y-104106699D01*
X69342856Y-104106699D02*
X69342856Y-104046222D01*
X69342856Y-104046222D02*
X69403332Y-103925270D01*
X69403332Y-103925270D02*
X69463809Y-103864794D01*
X69463809Y-103864794D02*
X69584761Y-103804318D01*
X69584761Y-103804318D02*
X69826666Y-103804318D01*
X69826666Y-103804318D02*
X69947618Y-103864794D01*
X69947618Y-103864794D02*
X70008094Y-103925270D01*
X70008094Y-103925270D02*
X70068571Y-104046222D01*
X70068571Y-104046222D02*
X70068571Y-104106699D01*
X70068571Y-104106699D02*
X70008094Y-104227651D01*
X70008094Y-104227651D02*
X69947618Y-104288127D01*
X69947618Y-104288127D02*
X69826666Y-104348603D01*
X69826666Y-104348603D02*
X69584761Y-104348603D01*
X69584761Y-104348603D02*
X69463809Y-104409080D01*
X69463809Y-104409080D02*
X69403332Y-104469556D01*
X69403332Y-104469556D02*
X69342856Y-104590508D01*
X69342856Y-104590508D02*
X69342856Y-104832413D01*
X69342856Y-104832413D02*
X69403332Y-104953365D01*
X69403332Y-104953365D02*
X69463809Y-105013842D01*
X69463809Y-105013842D02*
X69584761Y-105074318D01*
X69584761Y-105074318D02*
X69826666Y-105074318D01*
X69826666Y-105074318D02*
X69947618Y-105013842D01*
X69947618Y-105013842D02*
X70008094Y-104953365D01*
X70008094Y-104953365D02*
X70068571Y-104832413D01*
X70068571Y-104832413D02*
X70068571Y-104590508D01*
X70068571Y-104590508D02*
X70008094Y-104469556D01*
X70008094Y-104469556D02*
X69947618Y-104409080D01*
X69947618Y-104409080D02*
X69826666Y-104348603D01*
X70612856Y-104227651D02*
X70612856Y-105497651D01*
X70612856Y-104288127D02*
X70733809Y-104227651D01*
X70733809Y-104227651D02*
X70975714Y-104227651D01*
X70975714Y-104227651D02*
X71096666Y-104288127D01*
X71096666Y-104288127D02*
X71157142Y-104348603D01*
X71157142Y-104348603D02*
X71217618Y-104469556D01*
X71217618Y-104469556D02*
X71217618Y-104832413D01*
X71217618Y-104832413D02*
X71157142Y-104953365D01*
X71157142Y-104953365D02*
X71096666Y-105013842D01*
X71096666Y-105013842D02*
X70975714Y-105074318D01*
X70975714Y-105074318D02*
X70733809Y-105074318D01*
X70733809Y-105074318D02*
X70612856Y-105013842D01*
X71761904Y-105074318D02*
X71761904Y-103804318D01*
X71761904Y-104288127D02*
X71882857Y-104227651D01*
X71882857Y-104227651D02*
X72124762Y-104227651D01*
X72124762Y-104227651D02*
X72245714Y-104288127D01*
X72245714Y-104288127D02*
X72306190Y-104348603D01*
X72306190Y-104348603D02*
X72366666Y-104469556D01*
X72366666Y-104469556D02*
X72366666Y-104832413D01*
X72366666Y-104832413D02*
X72306190Y-104953365D01*
X72306190Y-104953365D02*
X72245714Y-105013842D01*
X72245714Y-105013842D02*
X72124762Y-105074318D01*
X72124762Y-105074318D02*
X71882857Y-105074318D01*
X71882857Y-105074318D02*
X71761904Y-105013842D01*
X73576191Y-105074318D02*
X72850476Y-105074318D01*
X73213333Y-105074318D02*
X73213333Y-103804318D01*
X73213333Y-103804318D02*
X73092381Y-103985746D01*
X73092381Y-103985746D02*
X72971429Y-104106699D01*
X72971429Y-104106699D02*
X72850476Y-104167175D01*
D19*
%TO.C,TOGGLE_SWITCH1*%
X126362400Y-83532300D02*
X127758069Y-83532300D01*
X129741931Y-83532300D02*
X130909000Y-83532300D01*
X130909000Y-83532300D02*
X130909000Y-74667700D01*
X126362400Y-74667700D02*
X126362400Y-83532300D01*
X127758069Y-74667700D02*
X126362400Y-74667700D01*
X130909000Y-74667700D02*
X129741931Y-74667700D01*
D12*
%TO.C,RTC1*%
X51012000Y-84500000D02*
X51012000Y-84500000D01*
X51112000Y-84500000D02*
X51112000Y-84500000D01*
D20*
X55612000Y-84000000D02*
X52812000Y-84000000D01*
X55612000Y-89000000D02*
X52812000Y-89000000D01*
D12*
X51112000Y-84500000D02*
G75*
G02*
X51012000Y-84500000I-50000J0D01*
G01*
X51012000Y-84500000D02*
G75*
G02*
X51112000Y-84500000I50000J0D01*
G01*
D19*
%TO.C,RFID1*%
X115352158Y-121823600D02*
X113647842Y-121823600D01*
X113647842Y-125176400D02*
X115352158Y-125176400D01*
X116549526Y-124750315D02*
G75*
G02*
X116346326Y-124750315I-101600J0D01*
G01*
X116346326Y-124750315D02*
G75*
G02*
X116549526Y-124750315I101600J0D01*
G01*
D20*
%TO.C,LDOReg1*%
X91300000Y-112500000D02*
X92100000Y-112500000D01*
X89700000Y-112950000D02*
X89700000Y-112950000D01*
X89600000Y-112950000D02*
X89600000Y-112950000D01*
X89600000Y-112950000D02*
X89600000Y-112950000D01*
X92500000Y-113750000D02*
X92500000Y-114150000D01*
X91300000Y-115400000D02*
X92100000Y-115400000D01*
X89700000Y-112950000D02*
G75*
G02*
X89600000Y-112950000I-50000J0D01*
G01*
X89700000Y-112950000D02*
G75*
G02*
X89600000Y-112950000I-50000J0D01*
G01*
X89600000Y-112950000D02*
G75*
G02*
X89700000Y-112950000I50000J0D01*
G01*
D12*
%TO.C,CoinCell1*%
X53950000Y-53800000D02*
X53950000Y-53800000D01*
X53950000Y-53900000D02*
X53950000Y-53900000D01*
X53950000Y-53800000D02*
G75*
G02*
X53950000Y-53900000I0J-50000D01*
G01*
X53950000Y-53900000D02*
G75*
G02*
X53950000Y-53800000I0J50000D01*
G01*
D20*
%TO.C,328pb1*%
X67100000Y-101350000D02*
X73400000Y-101350000D01*
X73400000Y-101350000D02*
X73400000Y-107650000D01*
X73400000Y-107650000D02*
X67100000Y-107650000D01*
X67100000Y-107650000D02*
X67100000Y-101350000D01*
D16*
X65850000Y-100500000D02*
G75*
G02*
X65450000Y-100500000I-200000J0D01*
G01*
X65450000Y-100500000D02*
G75*
G02*
X65850000Y-100500000I200000J0D01*
G01*
D21*
%TO.C,LED2*%
X121640000Y-81540000D02*
X121640000Y-83460000D01*
X121640000Y-83460000D02*
X124500000Y-83460000D01*
X124500000Y-81540000D02*
X121640000Y-81540000D01*
D20*
%TO.C,HexBuf1*%
X39925000Y-118875000D02*
X41475000Y-118875000D01*
X41825000Y-118895000D02*
X45025000Y-118895000D01*
X41825000Y-129095000D02*
X41825000Y-118895000D01*
X45025000Y-118895000D02*
X45025000Y-129095000D01*
X45025000Y-129095000D02*
X41825000Y-129095000D01*
D12*
%TO.C,RST_SWITCH1*%
X115450000Y-75150000D02*
X115450000Y-75800000D01*
X115450000Y-75800000D02*
X115450000Y-75800000D01*
X115450000Y-78850000D02*
X115450000Y-78200000D01*
X121550000Y-75200000D02*
X115450000Y-75150000D01*
X121550000Y-75800000D02*
X121550000Y-75200000D01*
X121550000Y-78200000D02*
X121550000Y-78850000D01*
X121550000Y-78850000D02*
X115450000Y-78850000D01*
X124000000Y-76800000D02*
X124000000Y-76800000D01*
X124100000Y-76800000D02*
X124100000Y-76800000D01*
X124000000Y-76800000D02*
G75*
G02*
X124100000Y-76800000I50000J0D01*
G01*
X124100000Y-76800000D02*
G75*
G02*
X124000000Y-76800000I-50000J0D01*
G01*
D22*
%TO.C,Y1*%
X55950000Y-105520000D02*
X55950000Y-105680000D01*
X58450000Y-105520000D02*
X58450000Y-105680000D01*
D20*
X55175000Y-104500000D02*
G75*
G02*
X54975002Y-104500000I-99999J0D01*
G01*
X54975002Y-104500000D02*
G75*
G02*
X55175000Y-104500000I99999J0D01*
G01*
D19*
%TO.C,U3*%
X94474500Y-66877900D02*
X95465100Y-66877900D01*
X95058700Y-63829900D02*
X94474500Y-63829900D01*
X95465100Y-63829900D02*
X95058700Y-63829900D01*
X95465100Y-64744300D02*
X95465100Y-63829900D01*
X95465100Y-66877900D02*
X95465100Y-65963500D01*
X95058700Y-63829900D02*
G75*
G02*
X94652300Y-64109299I-301019J2583D01*
G01*
D12*
%TO.C,STAYAWAKE_SW1*%
X115450000Y-70150000D02*
X115450000Y-70800000D01*
X115450000Y-70800000D02*
X115450000Y-70800000D01*
X115450000Y-73850000D02*
X115450000Y-73200000D01*
X121550000Y-70200000D02*
X115450000Y-70150000D01*
X121550000Y-70800000D02*
X121550000Y-70200000D01*
X121550000Y-73200000D02*
X121550000Y-73850000D01*
X121550000Y-73850000D02*
X115450000Y-73850000D01*
X124000000Y-71800000D02*
X124000000Y-71800000D01*
X124100000Y-71800000D02*
X124100000Y-71800000D01*
X124000000Y-71800000D02*
G75*
G02*
X124100000Y-71800000I50000J0D01*
G01*
X124100000Y-71800000D02*
G75*
G02*
X124000000Y-71800000I-50000J0D01*
G01*
D19*
%TO.C,U2*%
X110788800Y-83076000D02*
X110788800Y-83990400D01*
X110788800Y-85209600D02*
X110788800Y-86124000D01*
X110788800Y-86124000D02*
X111195200Y-86124000D01*
X111195200Y-86124000D02*
X111779400Y-86124000D01*
X111779400Y-83076000D02*
X110788800Y-83076000D01*
X111195200Y-86124000D02*
G75*
G02*
X111601600Y-85844601I301019J-2583D01*
G01*
D22*
%TO.C,POWER_CYCLE_SWITCH1*%
X126900000Y-87600000D02*
X127750000Y-87600000D01*
X126900000Y-93600000D02*
X126900000Y-87600000D01*
X127750000Y-93600000D02*
X126900000Y-93600000D01*
X129850000Y-93600000D02*
X130700000Y-93600000D01*
X130700000Y-87600000D02*
X129850000Y-87600000D01*
X130700000Y-93600000D02*
X130700000Y-87600000D01*
D20*
X127690000Y-95320000D02*
G75*
G02*
X127490000Y-95320000I-100000J0D01*
G01*
X127490000Y-95320000D02*
G75*
G02*
X127690000Y-95320000I100000J0D01*
G01*
D22*
%TO.C,U1*%
X48800000Y-132400000D02*
X65000000Y-132400000D01*
X48800000Y-132800000D02*
X48800000Y-132400000D01*
X48800000Y-148200000D02*
X48800000Y-148600000D01*
X48800000Y-148600000D02*
X65000000Y-148600000D01*
X65000000Y-132400000D02*
X65000000Y-132800000D01*
X65000000Y-148600000D02*
X65000000Y-148200000D01*
D23*
X67300000Y-147500000D02*
G75*
G02*
X66700000Y-147500000I-300000J0D01*
G01*
X66700000Y-147500000D02*
G75*
G02*
X67300000Y-147500000I300000J0D01*
G01*
D21*
%TO.C,LED4*%
X104540000Y-63240000D02*
X104540000Y-66100000D01*
X106460000Y-63240000D02*
X104540000Y-63240000D01*
X106460000Y-66100000D02*
X106460000Y-63240000D01*
%TO.C,LED5*%
X100340000Y-63240000D02*
X100340000Y-66100000D01*
X102260000Y-63240000D02*
X100340000Y-63240000D01*
X102260000Y-66100000D02*
X102260000Y-63240000D01*
%TO.C,LED1*%
X121665000Y-86040000D02*
X121665000Y-87960000D01*
X121665000Y-87960000D02*
X124525000Y-87960000D01*
X124525000Y-86040000D02*
X121665000Y-86040000D01*
D22*
%TO.C,TAGCONN1*%
X126295000Y-61850000D02*
X131375000Y-61850000D01*
X126295000Y-72010000D02*
X126295000Y-61850000D01*
X131375000Y-61850000D02*
X131375000Y-72010000D01*
X131375000Y-72010000D02*
X126295000Y-72010000D01*
D12*
%TO.C,BROADCAST_SW2*%
X115450000Y-65150000D02*
X115450000Y-65800000D01*
X115450000Y-65800000D02*
X115450000Y-65800000D01*
X115450000Y-68850000D02*
X115450000Y-68200000D01*
X121550000Y-65200000D02*
X115450000Y-65150000D01*
X121550000Y-65800000D02*
X121550000Y-65200000D01*
X121550000Y-68200000D02*
X121550000Y-68850000D01*
X121550000Y-68850000D02*
X115450000Y-68850000D01*
X124000000Y-66800000D02*
X124000000Y-66800000D01*
X124100000Y-66800000D02*
X124100000Y-66800000D01*
X124000000Y-66800000D02*
G75*
G02*
X124100000Y-66800000I50000J0D01*
G01*
X124100000Y-66800000D02*
G75*
G02*
X124000000Y-66800000I-50000J0D01*
G01*
D21*
%TO.C,J2*%
X113770000Y-88270000D02*
X113770000Y-85670000D01*
X116430000Y-85670000D02*
X113770000Y-85670000D01*
X116430000Y-88270000D02*
X113770000Y-88270000D01*
X116430000Y-88270000D02*
X116430000Y-85670000D01*
X116430000Y-89540000D02*
X116430000Y-90870000D01*
X116430000Y-90870000D02*
X115100000Y-90870000D01*
%TO.C,LED3*%
X121640000Y-84040000D02*
X121640000Y-85960000D01*
X121640000Y-85960000D02*
X124500000Y-85960000D01*
X124500000Y-84040000D02*
X121640000Y-84040000D01*
%TD*%
D24*
%TO.C,CoinCell1*%
X53950000Y-67500000D03*
D25*
X73950000Y-67500000D03*
%TD*%
%LPC*%
D26*
%TO.C,TOGGLE_SWITCH1*%
X128750000Y-81100000D03*
X128750000Y-79100000D03*
X128750000Y-77099999D03*
D27*
X128750000Y-83100000D03*
X128750000Y-75100000D03*
%TD*%
D28*
%TO.C,RTC1*%
X52000000Y-84500000D03*
X52000000Y-85500000D03*
X52000000Y-86500000D03*
X52000000Y-87500000D03*
X52000000Y-88500000D03*
X56424000Y-88500000D03*
X56424000Y-87500000D03*
X56424000Y-86500000D03*
X56424000Y-85500000D03*
X56424000Y-84500000D03*
%TD*%
D29*
%TO.C,RFID1*%
X115719200Y-124750315D03*
X115719200Y-124250189D03*
X115719200Y-123750063D03*
X115719200Y-123249937D03*
X115719200Y-122749811D03*
X115719200Y-122249685D03*
X113280800Y-122249685D03*
X113280800Y-122749811D03*
X113280800Y-123249937D03*
X113280800Y-123750063D03*
X113280800Y-124250189D03*
X113280800Y-124750315D03*
D30*
X114500000Y-123500000D03*
%TD*%
D31*
%TO.C,LDOReg1*%
X90500000Y-113000000D03*
D32*
X90500000Y-113950000D03*
D31*
X90500000Y-114900000D03*
X92900000Y-114900000D03*
X92900000Y-113000000D03*
%TD*%
D24*
%TO.C,CoinCell1*%
X53950000Y-67500000D03*
D25*
X73950000Y-67500000D03*
%TD*%
D33*
%TO.C,328pb1*%
X66000000Y-101700000D03*
X66000000Y-102500000D03*
X66000000Y-103300000D03*
X66000000Y-104100000D03*
X66000000Y-104900000D03*
X66000000Y-105700000D03*
X66000000Y-106500000D03*
X66000000Y-107300000D03*
D34*
X67450000Y-108750000D03*
X68250000Y-108750000D03*
X69050000Y-108750000D03*
X69850000Y-108750000D03*
X70650000Y-108750000D03*
X71450000Y-108750000D03*
X72250000Y-108750000D03*
X73050000Y-108750000D03*
D33*
X74500000Y-107300000D03*
X74500000Y-106500000D03*
X74500000Y-105700000D03*
X74500000Y-104900000D03*
X74500000Y-104100000D03*
X74500000Y-103300000D03*
X74500000Y-102500000D03*
X74500000Y-101700000D03*
D34*
X73050000Y-100250000D03*
X72250000Y-100250000D03*
X71450000Y-100250000D03*
X70650000Y-100250000D03*
X69850000Y-100250000D03*
X69050000Y-100250000D03*
X68250000Y-100250000D03*
X67450000Y-100250000D03*
%TD*%
D35*
%TO.C,VCC_1*%
X100800000Y-96200000D03*
%TD*%
%TO.C,VBAT_1*%
X90200000Y-58500000D03*
%TD*%
%TO.C,GND_1*%
X110900000Y-66300000D03*
%TD*%
D36*
%TO.C,C_LDO_VCC1*%
X87650000Y-112100000D03*
X87650000Y-113800000D03*
%TD*%
D35*
%TO.C,GPO_1*%
X104500000Y-127500000D03*
%TD*%
D37*
%TO.C,R_MOSI1*%
X62865000Y-111760000D03*
X61450786Y-113174214D03*
%TD*%
D38*
%TO.C,LED2*%
X122475000Y-82500000D03*
X124525000Y-82500000D03*
%TD*%
D39*
%TO.C,HexBuf1*%
X40700000Y-119550000D03*
X40700000Y-120820000D03*
X40700000Y-122090000D03*
X40700000Y-123360000D03*
X40700000Y-124630000D03*
X40700000Y-125900000D03*
X40700000Y-127170000D03*
X40700000Y-128440000D03*
X46150000Y-128440000D03*
X46150000Y-127170000D03*
X46150000Y-125900000D03*
X46150000Y-124630000D03*
X46150000Y-123360000D03*
X46150000Y-122090000D03*
X46150000Y-120820000D03*
X46150000Y-119550000D03*
%TD*%
D40*
%TO.C,R_PD3_UP1*%
X65207107Y-97407107D03*
X63792893Y-95992893D03*
%TD*%
D41*
%TO.C,H3*%
X130000000Y-57000000D03*
%TD*%
D42*
%TO.C,RST_SWITCH1*%
X121800000Y-77000000D03*
X115200000Y-77000000D03*
%TD*%
D43*
%TO.C,Reed1*%
X40200000Y-113000000D03*
X40200000Y-94660000D03*
%TD*%
D36*
%TO.C,C_74HC1*%
X51050000Y-123850000D03*
X51050000Y-125550000D03*
%TD*%
D44*
%TO.C,R_INT_PD2*%
X65450000Y-94650000D03*
X66864214Y-96064214D03*
%TD*%
D45*
%TO.C,R_CS_RFM1*%
X58750000Y-117750000D03*
X56750000Y-117750000D03*
%TD*%
D46*
%TO.C,R_PD2_PUP1*%
X67550000Y-93100000D03*
X67550000Y-91100000D03*
%TD*%
D45*
%TO.C,R_WP1*%
X84600000Y-135400000D03*
X82600000Y-135400000D03*
%TD*%
D35*
%TO.C,RFM_RST_1*%
X44100000Y-139600000D03*
%TD*%
D47*
%TO.C,R_RST1*%
X71900000Y-90800000D03*
X71900000Y-92800000D03*
%TD*%
D45*
%TO.C,R_PE1_PUP1*%
X62700000Y-109220000D03*
X60700000Y-109220000D03*
%TD*%
D48*
%TO.C,Y1*%
X56400000Y-104500000D03*
X56400000Y-106700000D03*
X58000000Y-106700000D03*
X58000000Y-104500000D03*
%TD*%
D35*
%TO.C,INT_TRIG_1*%
X68700000Y-83900000D03*
%TD*%
D41*
%TO.C,H1*%
X40000000Y-145000000D03*
%TD*%
D35*
%TO.C,3V3_1*%
X94500000Y-103200000D03*
%TD*%
D49*
%TO.C,U3*%
X93661700Y-64414100D03*
X93661700Y-66293700D03*
X95846100Y-65353900D03*
%TD*%
D50*
%TO.C,JP2*%
X73900000Y-145300000D03*
%TD*%
%TO.C,JP1*%
X70200000Y-148000000D03*
%TD*%
D42*
%TO.C,STAYAWAKE_SW1*%
X121800000Y-72000000D03*
X115200000Y-72000000D03*
%TD*%
D51*
%TO.C,R_MISO_RFM1*%
X56150000Y-125095000D03*
X58150000Y-125095000D03*
%TD*%
D52*
%TO.C,C_RFM69_0.1*%
X60800000Y-130050000D03*
X62500000Y-130050000D03*
%TD*%
D47*
%TO.C,R_PULL_UP_TRIG1*%
X60200000Y-84000000D03*
X60200000Y-86000000D03*
%TD*%
D35*
%TO.C,INT_MIN_1*%
X68700000Y-86300000D03*
%TD*%
D46*
%TO.C,R_LDO_UP1*%
X85150000Y-114862500D03*
X85150000Y-112862500D03*
%TD*%
D52*
%TO.C,C_XTAL1*%
X56500000Y-101700000D03*
X58200000Y-101700000D03*
%TD*%
D45*
%TO.C,R_PE1*%
X108500000Y-93000000D03*
X106500000Y-93000000D03*
%TD*%
D53*
%TO.C,C_RFID_0.2*%
X113700000Y-129150000D03*
X113700000Y-127450000D03*
%TD*%
D37*
%TO.C,R_CS_SPI4*%
X80000000Y-113000000D03*
X78585786Y-114414214D03*
%TD*%
D35*
%TO.C,MOSI_1*%
X69300000Y-143500000D03*
%TD*%
D54*
%TO.C,U2*%
X112592200Y-85539800D03*
X112592200Y-83660200D03*
X110407800Y-84600000D03*
%TD*%
D41*
%TO.C,H4*%
X130000000Y-145000000D03*
%TD*%
D36*
%TO.C,C_328pb_AREF1*%
X77200000Y-103850000D03*
X77200000Y-105550000D03*
%TD*%
D37*
%TO.C,R_SCK1*%
X66112107Y-111687893D03*
X64697893Y-113102107D03*
%TD*%
D47*
%TO.C,R_LPD1*%
X116200000Y-127300000D03*
X116200000Y-129300000D03*
%TD*%
D55*
%TO.C,POWER_CYCLE_SWITCH1*%
X128800000Y-93850000D03*
X128800000Y-87350000D03*
%TD*%
D45*
%TO.C,R_LED2*%
X120500000Y-82000000D03*
X118500000Y-82000000D03*
%TD*%
D46*
%TO.C,R_RTC_PUP_DIN1*%
X48212000Y-85500000D03*
X48212000Y-83500000D03*
%TD*%
D47*
%TO.C,R_GPO1*%
X108600000Y-127300000D03*
X108600000Y-129300000D03*
%TD*%
D53*
%TO.C,C_RFID_0.1*%
X107700000Y-122200000D03*
X107700000Y-120500000D03*
%TD*%
D35*
%TO.C,RST_1*%
X87900000Y-80800000D03*
%TD*%
D53*
%TO.C,C_RFID_1*%
X110300000Y-122300000D03*
X110300000Y-120600000D03*
%TD*%
D35*
%TO.C,MISO_1*%
X75700000Y-124300000D03*
%TD*%
D36*
%TO.C,C_RFID_3*%
X119300000Y-122200000D03*
X119300000Y-123900000D03*
%TD*%
D35*
%TO.C,SCK_1*%
X70400000Y-141200000D03*
%TD*%
D45*
%TO.C,R_LED1*%
X120500000Y-88000000D03*
X118500000Y-88000000D03*
%TD*%
D47*
%TO.C,R_PULL_UP_SDA1*%
X64200000Y-84000000D03*
X64200000Y-86000000D03*
%TD*%
D51*
%TO.C,R_RST_RFM1*%
X78000000Y-100500000D03*
X80000000Y-100500000D03*
%TD*%
D35*
%TO.C,REED_1*%
X48600000Y-94100000D03*
%TD*%
D44*
%TO.C,R_TRIG_PD3*%
X60647658Y-99347658D03*
X62061872Y-100761872D03*
%TD*%
D35*
%TO.C,LDO_CTRL_1*%
X81000000Y-115700000D03*
%TD*%
D56*
%TO.C,U1*%
X65000000Y-147500000D03*
X65000000Y-145500000D03*
X65000000Y-143500000D03*
X65000000Y-141500000D03*
X65000000Y-139500000D03*
X65000000Y-137500000D03*
X65000000Y-135500000D03*
X65000000Y-133500000D03*
D57*
X48800000Y-133500000D03*
X48800000Y-135500000D03*
X48800000Y-137500000D03*
X48800000Y-139500000D03*
X48800000Y-141500000D03*
X48800000Y-143500000D03*
X48800000Y-145500000D03*
X48800000Y-147500000D03*
%TD*%
D58*
%TO.C,R_CS_SPI2*%
X55692893Y-114157107D03*
X57107107Y-112742893D03*
%TD*%
D40*
%TO.C,R_PUP_INT_MIN1*%
X60857107Y-92207107D03*
X59442893Y-90792893D03*
%TD*%
D35*
%TO.C,CS_SPI_1*%
X76400000Y-132800000D03*
%TD*%
D52*
%TO.C,C_RFM69_10*%
X60800000Y-126983200D03*
X62500000Y-126983200D03*
%TD*%
D46*
%TO.C,R_PC6_PUP1*%
X69860916Y-97112500D03*
X69860916Y-95112500D03*
%TD*%
D35*
%TO.C,LPD_1*%
X118500000Y-128300000D03*
%TD*%
%TO.C,SDA_1*%
X103300000Y-115700000D03*
%TD*%
D47*
%TO.C,R_PULL_UP_SCL1*%
X62200000Y-84000000D03*
X62200000Y-86000000D03*
%TD*%
D45*
%TO.C,R_LED3*%
X120500000Y-85000000D03*
X118500000Y-85000000D03*
%TD*%
D51*
%TO.C,R_POL1*%
X94953900Y-60653900D03*
X96953900Y-60653900D03*
%TD*%
%TO.C,R_CS_RFM2*%
X63000000Y-117750000D03*
X65000000Y-117750000D03*
%TD*%
D45*
%TO.C,R_CS_SPI1*%
X90350000Y-130400000D03*
X88350000Y-130400000D03*
%TD*%
D35*
%TO.C,CS_RFM_1*%
X44300000Y-137400000D03*
%TD*%
D59*
%TO.C,LED4*%
X105500000Y-64075000D03*
X105500000Y-66125000D03*
%TD*%
D41*
%TO.C,H2*%
X40000000Y-57000000D03*
%TD*%
D51*
%TO.C,R_MISO_SPI1*%
X82185000Y-133350000D03*
X84185000Y-133350000D03*
%TD*%
%TO.C,R_HOLD2*%
X95500000Y-136500000D03*
X97500000Y-136500000D03*
%TD*%
D46*
%TO.C,R_LED4*%
X105400000Y-61300000D03*
X105400000Y-59300000D03*
%TD*%
D51*
%TO.C,R_PULL_DOWN_TRIG1*%
X57500000Y-96250000D03*
X59500000Y-96250000D03*
%TD*%
D60*
%TO.C,C_XTAL2*%
X58300000Y-109700000D03*
X56600000Y-109700000D03*
%TD*%
D59*
%TO.C,LED5*%
X101300000Y-64075000D03*
X101300000Y-66125000D03*
%TD*%
D36*
%TO.C,C_328pb_AVCC1*%
X80000000Y-103800000D03*
X80000000Y-105500000D03*
%TD*%
%TO.C,C_328pb_GND1*%
X62500000Y-103300000D03*
X62500000Y-105000000D03*
%TD*%
D38*
%TO.C,LED1*%
X122500000Y-87000000D03*
X124550000Y-87000000D03*
%TD*%
D35*
%TO.C,SCL_1*%
X107700000Y-115800000D03*
%TD*%
D53*
%TO.C,C_RFID_2*%
X111200000Y-129150000D03*
X111200000Y-127450000D03*
%TD*%
D40*
%TO.C,R_PE2*%
X80414214Y-118914214D03*
X79000000Y-117500000D03*
%TD*%
D61*
%TO.C,TAGCONN1*%
X128835000Y-63120000D03*
X129850000Y-70740000D03*
X127820000Y-70740000D03*
D62*
X129470000Y-68200000D03*
X129470000Y-69470000D03*
D63*
X128200000Y-65660000D03*
D62*
X129470000Y-65660000D03*
X129470000Y-66930000D03*
X129470000Y-64390000D03*
D63*
X128200000Y-69470000D03*
X128200000Y-66930000D03*
X128200000Y-68200000D03*
X128200000Y-64390000D03*
%TD*%
D44*
%TO.C,R_REED_PD3*%
X61938128Y-97638128D03*
X63352342Y-99052342D03*
%TD*%
D42*
%TO.C,BROADCAST_SW2*%
X121800000Y-67000000D03*
X115200000Y-67000000D03*
%TD*%
D64*
%TO.C,J2*%
X115100000Y-89540000D03*
D65*
X115100000Y-87000000D03*
%TD*%
D51*
%TO.C,R_HOLD1*%
X95350000Y-134500000D03*
X97350000Y-134500000D03*
%TD*%
D47*
%TO.C,R_RFM_CS1*%
X41850000Y-131800000D03*
X41850000Y-133800000D03*
%TD*%
D51*
%TO.C,R_REED_RTC1*%
X46212000Y-87500000D03*
X48212000Y-87500000D03*
%TD*%
D46*
%TO.C,R_PC3_UP1*%
X73750000Y-97000000D03*
X73750000Y-95000000D03*
%TD*%
D51*
%TO.C,R_WP2*%
X82750000Y-137750000D03*
X84750000Y-137750000D03*
%TD*%
D46*
%TO.C,R_LED5*%
X101300000Y-61300000D03*
X101300000Y-59300000D03*
%TD*%
%TO.C,R_POL2*%
X106700000Y-88800000D03*
X106700000Y-86800000D03*
%TD*%
D51*
%TO.C,R_GPO2*%
X108200000Y-125100000D03*
X110200000Y-125100000D03*
%TD*%
D38*
%TO.C,LED3*%
X122475000Y-85000000D03*
X124525000Y-85000000D03*
%TD*%
D46*
%TO.C,R_LDO_DOWN1*%
X83950000Y-119050000D03*
X83950000Y-117050000D03*
%TD*%
D36*
%TO.C,C_LDO_3V3*%
X95650000Y-113550000D03*
X95650000Y-115250000D03*
%TD*%
D51*
%TO.C,R_CS_SPI3*%
X67750000Y-115500000D03*
X69750000Y-115500000D03*
%TD*%
D45*
%TO.C,R_REED_GND1*%
X51087500Y-114000000D03*
X49087500Y-114000000D03*
%TD*%
%LPD*%
M02*
