%TF.GenerationSoftware,KiCad,Pcbnew,8.0.6*%
%TF.CreationDate,2024-11-20T13:36:43-05:00*%
%TF.ProjectId,wheel_counter,77686565-6c5f-4636-9f75-6e7465722e6b,rev?*%
%TF.SameCoordinates,Original*%
%TF.FileFunction,Soldermask,Top*%
%TF.FilePolarity,Negative*%
%FSLAX46Y46*%
G04 Gerber Fmt 4.6, Leading zero omitted, Abs format (unit mm)*
G04 Created by KiCad (PCBNEW 8.0.6) date 2024-11-20 13:36:43*
%MOMM*%
%LPD*%
G01*
G04 APERTURE LIST*
G04 Aperture macros list*
%AMRoundRect*
0 Rectangle with rounded corners*
0 $1 Rounding radius*
0 $2 $3 $4 $5 $6 $7 $8 $9 X,Y pos of 4 corners*
0 Add a 4 corners polygon primitive as box body*
4,1,4,$2,$3,$4,$5,$6,$7,$8,$9,$2,$3,0*
0 Add four circle primitives for the rounded corners*
1,1,$1+$1,$2,$3*
1,1,$1+$1,$4,$5*
1,1,$1+$1,$6,$7*
1,1,$1+$1,$8,$9*
0 Add four rect primitives between the rounded corners*
20,1,$1+$1,$2,$3,$4,$5,0*
20,1,$1+$1,$4,$5,$6,$7,0*
20,1,$1+$1,$6,$7,$8,$9,0*
20,1,$1+$1,$8,$9,$2,$3,0*%
G04 Aperture macros list end*
%ADD10C,1.320800*%
%ADD11C,1.498600*%
%ADD12R,0.875000X0.450000*%
%ADD13R,0.355600X0.304800*%
%ADD14R,1.447800X2.590800*%
%ADD15R,1.000000X0.800000*%
%ADD16R,1.000000X0.600000*%
%ADD17R,1.400000X1.400000*%
%ADD18C,1.400000*%
%ADD19R,1.500000X0.600000*%
%ADD20R,0.600000X1.500000*%
%ADD21C,1.703200*%
%ADD22RoundRect,0.101600X-0.750000X0.650000X-0.750000X-0.650000X0.750000X-0.650000X0.750000X0.650000X0*%
%ADD23RoundRect,0.101600X-0.106066X0.883883X-0.883883X0.106066X0.106066X-0.883883X0.883883X-0.106066X0*%
%ADD24RoundRect,0.250000X-0.325000X-0.450000X0.325000X-0.450000X0.325000X0.450000X-0.325000X0.450000X0*%
%ADD25R,1.550000X0.650000*%
%ADD26RoundRect,0.101600X0.883883X0.106066X0.106066X0.883883X-0.883883X-0.106066X-0.106066X-0.883883X0*%
%ADD27C,3.200000*%
%ADD28RoundRect,0.102000X1.200000X1.050000X-1.200000X1.050000X-1.200000X-1.050000X1.200000X-1.050000X0*%
%ADD29R,1.300000X2.340000*%
%ADD30RoundRect,0.101600X-0.883883X-0.106066X-0.106066X-0.883883X0.883883X0.106066X0.106066X0.883883X0*%
%ADD31RoundRect,0.101600X0.550000X0.700000X-0.550000X0.700000X-0.550000X-0.700000X0.550000X-0.700000X0*%
%ADD32RoundRect,0.101600X0.700000X-0.550000X0.700000X0.550000X-0.700000X0.550000X-0.700000X-0.550000X0*%
%ADD33RoundRect,0.101600X-0.700000X0.550000X-0.700000X-0.550000X0.700000X-0.550000X0.700000X0.550000X0*%
%ADD34RoundRect,0.101600X-0.575000X-0.700000X0.575000X-0.700000X0.575000X0.700000X-0.575000X0.700000X0*%
%ADD35RoundRect,0.102000X-0.660400X-0.279400X0.660400X-0.279400X0.660400X0.279400X-0.660400X0.279400X0*%
%ADD36C,1.778000*%
%ADD37RoundRect,0.101600X-0.550000X-0.700000X0.550000X-0.700000X0.550000X0.700000X-0.550000X0.700000X0*%
%ADD38RoundRect,0.101600X-0.650000X-0.750000X0.650000X-0.750000X0.650000X0.750000X-0.650000X0.750000X0*%
%ADD39RoundRect,0.101600X0.750000X-0.650000X0.750000X0.650000X-0.750000X0.650000X-0.750000X-0.650000X0*%
%ADD40RoundRect,0.102000X0.660400X0.279400X-0.660400X0.279400X-0.660400X-0.279400X0.660400X-0.279400X0*%
%ADD41RoundRect,0.102000X0.700000X-0.750000X0.700000X0.750000X-0.700000X0.750000X-0.700000X-0.750000X0*%
%ADD42RoundRect,0.050800X1.000000X0.400000X-1.000000X0.400000X-1.000000X-0.400000X1.000000X-0.400000X0*%
%ADD43RoundRect,0.050800X-1.000000X-0.400000X1.000000X-0.400000X1.000000X0.400000X-1.000000X0.400000X0*%
%ADD44RoundRect,0.101600X0.106066X-0.883883X0.883883X-0.106066X-0.106066X0.883883X-0.883883X0.106066X0*%
%ADD45RoundRect,0.250000X-0.450000X0.325000X-0.450000X-0.325000X0.450000X-0.325000X0.450000X0.325000X0*%
%ADD46RoundRect,0.101600X0.650000X0.750000X-0.650000X0.750000X-0.650000X-0.750000X0.650000X-0.750000X0*%
%ADD47C,0.990600*%
%ADD48RoundRect,0.495300X0.000010X-0.000010X0.000010X0.000010X-0.000010X0.000010X-0.000010X-0.000010X0*%
%ADD49RoundRect,0.495300X-0.000010X0.000010X-0.000010X-0.000010X0.000010X-0.000010X0.000010X0.000010X0*%
%ADD50R,1.700000X1.700000*%
%ADD51O,1.700000X1.700000*%
G04 APERTURE END LIST*
D10*
%TO.C,TOGGLE_SWITCH1*%
X128750000Y-81100000D03*
X128750000Y-79100000D03*
X128750000Y-77099999D03*
D11*
X128750000Y-83100000D03*
X128750000Y-75100000D03*
%TD*%
D12*
%TO.C,RTC1*%
X52000000Y-84500000D03*
X52000000Y-85500000D03*
X52000000Y-86500000D03*
X52000000Y-87500000D03*
X52000000Y-88500000D03*
X56424000Y-88500000D03*
X56424000Y-87500000D03*
X56424000Y-86500000D03*
X56424000Y-85500000D03*
X56424000Y-84500000D03*
%TD*%
D13*
%TO.C,RFID1*%
X115719200Y-124750315D03*
X115719200Y-124250189D03*
X115719200Y-123750063D03*
X115719200Y-123249937D03*
X115719200Y-122749811D03*
X115719200Y-122249685D03*
X113280800Y-122249685D03*
X113280800Y-122749811D03*
X113280800Y-123249937D03*
X113280800Y-123750063D03*
X113280800Y-124250189D03*
X113280800Y-124750315D03*
D14*
X114500000Y-123500000D03*
%TD*%
D15*
%TO.C,LDOReg1*%
X90500000Y-113000000D03*
D16*
X90500000Y-113950000D03*
D15*
X90500000Y-114900000D03*
X92900000Y-114900000D03*
X92900000Y-113000000D03*
%TD*%
D17*
%TO.C,CoinCell1*%
X53950000Y-67500000D03*
D18*
X73950000Y-67500000D03*
%TD*%
D19*
%TO.C,328pb1*%
X66000000Y-101700000D03*
X66000000Y-102500000D03*
X66000000Y-103300000D03*
X66000000Y-104100000D03*
X66000000Y-104900000D03*
X66000000Y-105700000D03*
X66000000Y-106500000D03*
X66000000Y-107300000D03*
D20*
X67450000Y-108750000D03*
X68250000Y-108750000D03*
X69050000Y-108750000D03*
X69850000Y-108750000D03*
X70650000Y-108750000D03*
X71450000Y-108750000D03*
X72250000Y-108750000D03*
X73050000Y-108750000D03*
D19*
X74500000Y-107300000D03*
X74500000Y-106500000D03*
X74500000Y-105700000D03*
X74500000Y-104900000D03*
X74500000Y-104100000D03*
X74500000Y-103300000D03*
X74500000Y-102500000D03*
X74500000Y-101700000D03*
D20*
X73050000Y-100250000D03*
X72250000Y-100250000D03*
X71450000Y-100250000D03*
X70650000Y-100250000D03*
X69850000Y-100250000D03*
X69050000Y-100250000D03*
X68250000Y-100250000D03*
X67450000Y-100250000D03*
%TD*%
D21*
%TO.C,VCC_1*%
X100800000Y-96200000D03*
%TD*%
%TO.C,VBAT_1*%
X90200000Y-58500000D03*
%TD*%
%TO.C,GND_1*%
X110900000Y-66300000D03*
%TD*%
D22*
%TO.C,C_LDO_VCC1*%
X87650000Y-112100000D03*
X87650000Y-113800000D03*
%TD*%
D21*
%TO.C,GPO_1*%
X104500000Y-127500000D03*
%TD*%
D23*
%TO.C,R_MOSI1*%
X62865000Y-111760000D03*
X61450786Y-113174214D03*
%TD*%
D24*
%TO.C,LED2*%
X122475000Y-82500000D03*
X124525000Y-82500000D03*
%TD*%
D25*
%TO.C,HexBuf1*%
X40700000Y-119550000D03*
X40700000Y-120820000D03*
X40700000Y-122090000D03*
X40700000Y-123360000D03*
X40700000Y-124630000D03*
X40700000Y-125900000D03*
X40700000Y-127170000D03*
X40700000Y-128440000D03*
X46150000Y-128440000D03*
X46150000Y-127170000D03*
X46150000Y-125900000D03*
X46150000Y-124630000D03*
X46150000Y-123360000D03*
X46150000Y-122090000D03*
X46150000Y-120820000D03*
X46150000Y-119550000D03*
%TD*%
D26*
%TO.C,R_PD3_UP1*%
X65207107Y-97407107D03*
X63792893Y-95992893D03*
%TD*%
D27*
%TO.C,H3*%
X130000000Y-57000000D03*
%TD*%
D28*
%TO.C,RST_SWITCH1*%
X121800000Y-77000000D03*
X115200000Y-77000000D03*
%TD*%
D29*
%TO.C,Reed1*%
X40200000Y-113000000D03*
X40200000Y-94660000D03*
%TD*%
D22*
%TO.C,C_74HC1*%
X51050000Y-123850000D03*
X51050000Y-125550000D03*
%TD*%
D30*
%TO.C,R_INT_PD2*%
X65450000Y-94650000D03*
X66864214Y-96064214D03*
%TD*%
D31*
%TO.C,R_CS_RFM1*%
X58750000Y-117750000D03*
X56750000Y-117750000D03*
%TD*%
D32*
%TO.C,R_PD2_PUP1*%
X67550000Y-93100000D03*
X67550000Y-91100000D03*
%TD*%
D31*
%TO.C,R_WP1*%
X84600000Y-135400000D03*
X82600000Y-135400000D03*
%TD*%
D21*
%TO.C,RFM_RST_1*%
X44100000Y-139600000D03*
%TD*%
D33*
%TO.C,R_RST1*%
X71900000Y-90800000D03*
X71900000Y-92800000D03*
%TD*%
D31*
%TO.C,R_PE1_PUP1*%
X62700000Y-109220000D03*
X60700000Y-109220000D03*
%TD*%
D34*
%TO.C,Y1*%
X56400000Y-104500000D03*
X56400000Y-106700000D03*
X58000000Y-106700000D03*
X58000000Y-104500000D03*
%TD*%
D21*
%TO.C,INT_TRIG_1*%
X68700000Y-83900000D03*
%TD*%
D27*
%TO.C,H1*%
X40000000Y-145000000D03*
%TD*%
D21*
%TO.C,3V3_1*%
X94500000Y-103200000D03*
%TD*%
D35*
%TO.C,U3*%
X93661700Y-64414100D03*
X93661700Y-66293700D03*
X95846100Y-65353900D03*
%TD*%
D36*
%TO.C,JP2*%
X73900000Y-145300000D03*
%TD*%
%TO.C,JP1*%
X70200000Y-148000000D03*
%TD*%
D28*
%TO.C,STAYAWAKE_SW1*%
X121800000Y-72000000D03*
X115200000Y-72000000D03*
%TD*%
D37*
%TO.C,R_MISO_RFM1*%
X56150000Y-125095000D03*
X58150000Y-125095000D03*
%TD*%
D38*
%TO.C,C_RFM69_0.1*%
X60800000Y-130050000D03*
X62500000Y-130050000D03*
%TD*%
D33*
%TO.C,R_PULL_UP_TRIG1*%
X60200000Y-84000000D03*
X60200000Y-86000000D03*
%TD*%
D21*
%TO.C,INT_MIN_1*%
X68700000Y-86300000D03*
%TD*%
D32*
%TO.C,R_LDO_UP1*%
X85150000Y-114862500D03*
X85150000Y-112862500D03*
%TD*%
D38*
%TO.C,C_XTAL1*%
X56500000Y-101700000D03*
X58200000Y-101700000D03*
%TD*%
D31*
%TO.C,R_PE1*%
X108500000Y-93000000D03*
X106500000Y-93000000D03*
%TD*%
D39*
%TO.C,C_RFID_0.2*%
X113700000Y-129150000D03*
X113700000Y-127450000D03*
%TD*%
D23*
%TO.C,R_CS_SPI4*%
X80000000Y-113000000D03*
X78585786Y-114414214D03*
%TD*%
D21*
%TO.C,MOSI_1*%
X69300000Y-143500000D03*
%TD*%
D40*
%TO.C,U2*%
X112592200Y-85539800D03*
X112592200Y-83660200D03*
X110407800Y-84600000D03*
%TD*%
D27*
%TO.C,H4*%
X130000000Y-145000000D03*
%TD*%
D22*
%TO.C,C_328pb_AREF1*%
X77200000Y-103850000D03*
X77200000Y-105550000D03*
%TD*%
D23*
%TO.C,R_SCK1*%
X66112107Y-111687893D03*
X64697893Y-113102107D03*
%TD*%
D33*
%TO.C,R_LPD1*%
X116200000Y-127300000D03*
X116200000Y-129300000D03*
%TD*%
D41*
%TO.C,POWER_CYCLE_SWITCH1*%
X128800000Y-93850000D03*
X128800000Y-87350000D03*
%TD*%
D31*
%TO.C,R_LED2*%
X120500000Y-82000000D03*
X118500000Y-82000000D03*
%TD*%
D32*
%TO.C,R_RTC_PUP_DIN1*%
X48212000Y-85500000D03*
X48212000Y-83500000D03*
%TD*%
D33*
%TO.C,R_GPO1*%
X108600000Y-127300000D03*
X108600000Y-129300000D03*
%TD*%
D39*
%TO.C,C_RFID_0.1*%
X107700000Y-122200000D03*
X107700000Y-120500000D03*
%TD*%
D21*
%TO.C,RST_1*%
X87900000Y-80800000D03*
%TD*%
D39*
%TO.C,C_RFID_1*%
X110300000Y-122300000D03*
X110300000Y-120600000D03*
%TD*%
D21*
%TO.C,MISO_1*%
X75700000Y-124300000D03*
%TD*%
D22*
%TO.C,C_RFID_3*%
X119300000Y-122200000D03*
X119300000Y-123900000D03*
%TD*%
D21*
%TO.C,SCK_1*%
X70400000Y-141200000D03*
%TD*%
D31*
%TO.C,R_LED1*%
X120500000Y-88000000D03*
X118500000Y-88000000D03*
%TD*%
D33*
%TO.C,R_PULL_UP_SDA1*%
X64200000Y-84000000D03*
X64200000Y-86000000D03*
%TD*%
D37*
%TO.C,R_RST_RFM1*%
X78000000Y-100500000D03*
X80000000Y-100500000D03*
%TD*%
D21*
%TO.C,REED_1*%
X48600000Y-94100000D03*
%TD*%
D30*
%TO.C,R_TRIG_PD3*%
X60647658Y-99347658D03*
X62061872Y-100761872D03*
%TD*%
D21*
%TO.C,LDO_CTRL_1*%
X81000000Y-115700000D03*
%TD*%
D42*
%TO.C,U1*%
X65000000Y-147500000D03*
X65000000Y-145500000D03*
X65000000Y-143500000D03*
X65000000Y-141500000D03*
X65000000Y-139500000D03*
X65000000Y-137500000D03*
X65000000Y-135500000D03*
X65000000Y-133500000D03*
D43*
X48800000Y-133500000D03*
X48800000Y-135500000D03*
X48800000Y-137500000D03*
X48800000Y-139500000D03*
X48800000Y-141500000D03*
X48800000Y-143500000D03*
X48800000Y-145500000D03*
X48800000Y-147500000D03*
%TD*%
D44*
%TO.C,R_CS_SPI2*%
X55692893Y-114157107D03*
X57107107Y-112742893D03*
%TD*%
D26*
%TO.C,R_PUP_INT_MIN1*%
X60857107Y-92207107D03*
X59442893Y-90792893D03*
%TD*%
D21*
%TO.C,CS_SPI_1*%
X76400000Y-132800000D03*
%TD*%
D38*
%TO.C,C_RFM69_10*%
X60800000Y-126983200D03*
X62500000Y-126983200D03*
%TD*%
D32*
%TO.C,R_PC6_PUP1*%
X69860916Y-97112500D03*
X69860916Y-95112500D03*
%TD*%
D21*
%TO.C,LPD_1*%
X118500000Y-128300000D03*
%TD*%
%TO.C,SDA_1*%
X103300000Y-115700000D03*
%TD*%
D33*
%TO.C,R_PULL_UP_SCL1*%
X62200000Y-84000000D03*
X62200000Y-86000000D03*
%TD*%
D31*
%TO.C,R_LED3*%
X120500000Y-85000000D03*
X118500000Y-85000000D03*
%TD*%
D37*
%TO.C,R_POL1*%
X94953900Y-60653900D03*
X96953900Y-60653900D03*
%TD*%
%TO.C,R_CS_RFM2*%
X63000000Y-117750000D03*
X65000000Y-117750000D03*
%TD*%
D31*
%TO.C,R_CS_SPI1*%
X90350000Y-130400000D03*
X88350000Y-130400000D03*
%TD*%
D21*
%TO.C,CS_RFM_1*%
X44300000Y-137400000D03*
%TD*%
D45*
%TO.C,LED4*%
X105500000Y-64075000D03*
X105500000Y-66125000D03*
%TD*%
D27*
%TO.C,H2*%
X40000000Y-57000000D03*
%TD*%
D37*
%TO.C,R_MISO_SPI1*%
X82185000Y-133350000D03*
X84185000Y-133350000D03*
%TD*%
%TO.C,R_HOLD2*%
X95500000Y-136500000D03*
X97500000Y-136500000D03*
%TD*%
D32*
%TO.C,R_LED4*%
X105400000Y-61300000D03*
X105400000Y-59300000D03*
%TD*%
D37*
%TO.C,R_PULL_DOWN_TRIG1*%
X57500000Y-96250000D03*
X59500000Y-96250000D03*
%TD*%
D46*
%TO.C,C_XTAL2*%
X58300000Y-109700000D03*
X56600000Y-109700000D03*
%TD*%
D45*
%TO.C,LED5*%
X101300000Y-64075000D03*
X101300000Y-66125000D03*
%TD*%
D22*
%TO.C,C_328pb_AVCC1*%
X80000000Y-103800000D03*
X80000000Y-105500000D03*
%TD*%
%TO.C,C_328pb_GND1*%
X62500000Y-103300000D03*
X62500000Y-105000000D03*
%TD*%
D24*
%TO.C,LED1*%
X122500000Y-87000000D03*
X124550000Y-87000000D03*
%TD*%
D21*
%TO.C,SCL_1*%
X107700000Y-115800000D03*
%TD*%
D39*
%TO.C,C_RFID_2*%
X111200000Y-129150000D03*
X111200000Y-127450000D03*
%TD*%
D26*
%TO.C,R_PE2*%
X80414214Y-118914214D03*
X79000000Y-117500000D03*
%TD*%
D47*
%TO.C,TAGCONN1*%
X128835000Y-63120000D03*
X129850000Y-70740000D03*
X127820000Y-70740000D03*
D48*
X129470000Y-68200000D03*
X129470000Y-69470000D03*
D49*
X128200000Y-65660000D03*
D48*
X129470000Y-65660000D03*
X129470000Y-66930000D03*
X129470000Y-64390000D03*
D49*
X128200000Y-69470000D03*
X128200000Y-66930000D03*
X128200000Y-68200000D03*
X128200000Y-64390000D03*
%TD*%
D30*
%TO.C,R_REED_PD3*%
X61938128Y-97638128D03*
X63352342Y-99052342D03*
%TD*%
D28*
%TO.C,BROADCAST_SW2*%
X121800000Y-67000000D03*
X115200000Y-67000000D03*
%TD*%
D50*
%TO.C,J2*%
X115100000Y-89540000D03*
D51*
X115100000Y-87000000D03*
%TD*%
D37*
%TO.C,R_HOLD1*%
X95350000Y-134500000D03*
X97350000Y-134500000D03*
%TD*%
D33*
%TO.C,R_RFM_CS1*%
X41850000Y-131800000D03*
X41850000Y-133800000D03*
%TD*%
D37*
%TO.C,R_REED_RTC1*%
X46212000Y-87500000D03*
X48212000Y-87500000D03*
%TD*%
D32*
%TO.C,R_PC3_UP1*%
X73750000Y-97000000D03*
X73750000Y-95000000D03*
%TD*%
D37*
%TO.C,R_WP2*%
X82750000Y-137750000D03*
X84750000Y-137750000D03*
%TD*%
D32*
%TO.C,R_LED5*%
X101300000Y-61300000D03*
X101300000Y-59300000D03*
%TD*%
%TO.C,R_POL2*%
X106700000Y-88800000D03*
X106700000Y-86800000D03*
%TD*%
D37*
%TO.C,R_GPO2*%
X108200000Y-125100000D03*
X110200000Y-125100000D03*
%TD*%
D24*
%TO.C,LED3*%
X122475000Y-85000000D03*
X124525000Y-85000000D03*
%TD*%
D32*
%TO.C,R_LDO_DOWN1*%
X83950000Y-119050000D03*
X83950000Y-117050000D03*
%TD*%
D22*
%TO.C,C_LDO_3V3*%
X95650000Y-113550000D03*
X95650000Y-115250000D03*
%TD*%
D37*
%TO.C,R_CS_SPI3*%
X67750000Y-115500000D03*
X69750000Y-115500000D03*
%TD*%
D31*
%TO.C,R_REED_GND1*%
X51087500Y-114000000D03*
X49087500Y-114000000D03*
%TD*%
M02*
