M48
; DRILL file {KiCad 8.0.6} date 2024-11-20T13:36:43-0500
; FORMAT={-:-/ absolute / inch / decimal}
; #@! TF.CreationDate,2024-11-20T13:36:43-05:00
; #@! TF.GenerationSoftware,Kicad,Pcbnew,8.0.6
; #@! TF.FileFunction,Plated,1,2,PTH
FMAT,2
INCH
; #@! TA.AperFunction,Plated,PTH,ViaDrill
T1C0.0118
; #@! TA.AperFunction,Plated,PTH,ComponentDrill
T2C0.0320
; #@! TA.AperFunction,Plated,PTH,ComponentDrill
T3C0.0354
; #@! TA.AperFunction,Plated,PTH,ComponentDrill
T4C0.0390
; #@! TA.AperFunction,Plated,PTH,ComponentDrill
T5C0.0394
%
G90
G05
T1
X1.6063Y-5.1142
X1.6535Y-5.0079
X1.6575Y-4.8307
X1.6614Y-4.9094
X1.7185Y-4.7697
X1.813Y-4.5906
X1.815Y-5.1142
X1.8307Y-5.5787
X1.8317Y-5.2904
X1.8661Y-4.7539
X1.8661Y-5.0591
X1.9193Y-4.9055
X1.9606Y-3.2362
X1.9606Y-3.3386
X1.9961Y-5.3071
X2.0Y-5.3898
X2.0079Y-4.5453
X2.0472Y-5.4331
X2.0827Y-3.2815
X2.1378Y-3.4862
X2.1378Y-3.5669
X2.1378Y-4.5177
X2.1811Y-4.2598
X2.2146Y-4.5768
X2.225Y-4.875
X2.2539Y-3.3268
X2.2972Y-3.3701
X2.3031Y-3.3268
X2.3031Y-4.4882
X2.311Y-3.5138
X2.3228Y-3.2953
X2.3307Y-4.0551
X2.3465Y-5.1693
X2.35Y-4.925
X2.3583Y-3.8484
X2.3791Y-4.4791
X2.3878Y-4.2717
X2.4Y-4.872
X2.4035Y-4.0689
X2.4311Y-4.6457
X2.4665Y-3.4469
X2.5Y-4.4724
X2.525Y-4.2697
X2.5335Y-4.1654
X2.5394Y-3.7028
X2.5571Y-3.5315
X2.5591Y-4.5768
X2.6109Y-4.3359
X2.6172Y-4.3672
X2.6378Y-4.4882
X2.6459Y-4.1731
X2.6476Y-4.0
X2.6496Y-3.3071
X2.6535Y-3.3819
X2.6732Y-4.0531
X2.6791Y-4.1673
X2.685Y-4.2126
X2.689Y-5.3819
X2.7008Y-4.4557
X2.7067Y-3.6457
X2.7362Y-3.6831
X2.7638Y-5.4488
X2.7717Y-4.0433
X2.7795Y-4.1339
X2.7815Y-3.878
X2.8031Y-5.5079
X2.811Y-4.0669
X2.818Y-3.866
X2.8307Y-4.4724
X2.8386Y-4.0433
X2.8543Y-4.0079
X2.8543Y-5.2835
X2.8839Y-4.2323
X2.8893Y-4.1614
X2.9626Y-4.2579
X2.9823Y-4.0394
X2.9843Y-3.5965
X3.0039Y-4.9567
X3.0197Y-3.8189
X3.0236Y-5.1181
X3.0807Y-3.7579
X3.1004Y-4.0098
X3.1043Y-3.4843
X3.1594Y-5.128
X3.1634Y-4.3386
X3.1772Y-4.372
X3.2078Y-3.8909
X3.2283Y-4.7244
X3.2283Y-5.1673
X3.252Y-3.8898
X3.3169Y-4.3661
X3.3563Y-3.622
X3.3661Y-3.7008
X3.3799Y-4.3268
X3.4035Y-4.1437
X3.4055Y-4.5492
X3.4291Y-4.122
X3.4508Y-3.9508
X3.4764Y-3.2638
X3.5236Y-4.5276
X3.5433Y-5.4331
X3.5669Y-4.0098
X3.6163Y-2.5336
X3.6299Y-5.437
X3.7185Y-4.813
X3.7933Y-4.5906
X3.8189Y-4.8031
X3.8643Y-2.4588
X3.9567Y-4.0354
X3.9961Y-4.6693
X4.003Y-4.7293
X4.0945Y-3.5354
X4.0984Y-3.7953
X4.1339Y-5.1614
X4.1437Y-4.9016
X4.2047Y-3.374
X4.2087Y-5.0945
X4.2992Y-3.1575
X4.3031Y-3.2756
X4.3268Y-4.8583
X4.3799Y-3.6614
X4.3937Y-4.8268
X4.3996Y-3.7264
X4.4055Y-4.7835
X4.4213Y-4.9843
X4.4252Y-4.8661
X4.4252Y-4.9173
X4.5Y-3.3307
X4.5079Y-5.1417
X4.5433Y-4.9449
X4.5531Y-3.2382
X4.5559Y-4.7913
X4.6339Y-5.0118
X4.685Y-2.874
X4.6969Y-3.9154
X4.6988Y-3.7067
X4.7756Y-4.8031
X4.8031Y-3.1299
X4.8602Y-2.7303
X4.8622Y-2.9134
X4.8622Y-3.6614
X4.8681Y-2.6909
X4.8976Y-3.1024
X4.9094Y-3.8031
X4.937Y-2.635
X4.9409Y-3.1299
X4.9606Y-3.2283
X5.0315Y-4.7283
X5.0787Y-3.7992
X5.122Y-2.5866
X5.122Y-2.6339
X5.1476Y-3.9528
X5.1516Y-2.6831
T2
X5.0689Y-3.0354
X5.0689Y-3.1142
X5.0689Y-3.1929
T3
X2.124Y-2.6575
X2.9114Y-2.6575
T4
X5.0689Y-2.9567
X5.0689Y-3.2717
T5
X2.7638Y-5.8268
X2.9094Y-5.7205
X4.5315Y-3.4252
X4.5315Y-3.5252
M30
